<svg xmlns="http://www.w3.org/2000/svg" xmlns:xlink="http://www.w3.org/1999/xlink" xml:space="preserve" style="shape-rendering:geometricPrecision;text-rendering:geometricPrecision;image-rendering:optimizeQuality;" viewBox="0 0 0.309417 0.31823375" x="0px" y="0px" fill-rule="evenodd" clip-rule="evenodd"><defs><style type="text/css">
   
    .fil0 {fill:black}
   
  </style></defs><g><path class="fil0" d="M0.0371181 0.0347677c0.00201181,-0.0463189 0.233169,-0.0463937 0.235181,0l0 0.0131457c0.0105276,0 0.0210551,0 0.0315827,0 0.00304331,0 0.00553543,0.00248819 0.00553543,0.0055315l0 0.0571811c0,0.00304331 -0.00249213,0.00553543 -0.00553543,0.00553543l-0.0179843 0c-0.00304331,0 -0.0055315,-0.00249213 -0.0055315,-0.00553543l0 -0.0428858 -0.00806693 0 0 0.148488c-0.00237795,0.0133071 -0.00884646,0.0184291 -0.0179882,0.0182126l-0.00950787 0 0 0.0150748c0,0.0027874 -0.00228346,0.00507087 -0.0050748,0.00507087l-0.0290512 0c-0.0027874,0 -0.00507087,-0.00228346 -0.00507087,-0.00507087l0 -0.0150748c-0.0339331,0 -0.0678622,0 -0.101795,0l0 0.0150748c0,0.0027874 -0.00228346,0.00507087 -0.00507087,0.00507087l-0.0290512 0c-0.00279134,0 -0.0050748,-0.00228346 -0.0050748,-0.00507087l0 -0.0150748 -0.00950787 0c-0.00914173,0.000216535 -0.0156102,-0.00490551 -0.0179882,-0.0182126l0 -0.148488 -0.00806693 0 0 0.0428858c0,0.00304331 -0.00248819,0.00553543 -0.0055315,0.00553543l-0.0179843 0c-0.00304724,0 -0.00553543,-0.00249213 -0.00553543,-0.00553543l0 -0.0571811c0,-0.00304331 0.00248819,-0.0055315 0.00553543,-0.0055315 0.0105276,0 0.0210551,0 0.0315827,0l0 -0.0131457zm0.0241496 0.00625591l0 0.0968386c0.0487362,0.0139528 0.138146,0.0139528 0.186882,0l0 -0.0968386c-0.0580984,-0.0159606 -0.128783,-0.0159606 -0.186882,0zm0.056378 0.130098l0 0.00264961c0,0.00146063 0.00217717,0.00265354 0.00484252,0.00265354 0.0214803,0 0.0429606,0 0.0644409,0 0.00266142,0 0.00484252,-0.00119291 0.00484252,-0.00265354l0 -0.00264961c-0.0247087,0 -0.0494173,0 -0.074126,0zm0.00461024 0.0101457l0 0.00264961c0,0.00145669 0.0021811,0.00264961 0.00484252,0.00264961 0.0184055,0 0.036815,0 0.0552205,0 0.00266142,0 0.00484252,-0.00119291 0.00484252,-0.00264961l0 -0.00264961c-0.0216339,0 -0.0432717,0 -0.0649055,0zm0.00691732 0.0106063l0 0.00264961c0,0.00145669 0.0021811,0.00264961 0.00484252,0.00264961 0.0137953,0 0.0275906,0 0.0413858,0 0.00266142,0 0.00484252,-0.00119291 0.00484252,-0.00264961l0 -0.00264961c-0.0170236,0 -0.0340472,0 -0.0510709,0zm0.110441 -0.0210394l-0.0197126 0c-0.00799606,0 -0.0209646,0.0139173 -0.0225394,0.0197913 -0.000877953,0.00326772 0.00368898,0.00579921 0.00720866,0.00579921l0.0350433 0c0.00405906,0 0.00737795,-0.0033189 0.00737795,-0.00737795l0 -0.0108346c0,-0.00405906 -0.0033189,-0.00737795 -0.00737795,-0.00737795zm-0.169811 0l0.0197126 0c0.00799606,0 0.0209646,0.0139173 0.0225394,0.0197913 0.000877953,0.00326772 -0.00368898,0.00579921 -0.00720866,0.00579921l-0.0350433 0c-0.00405906,0 -0.00737795,-0.0033189 -0.00737795,-0.00737795l0 -0.0108346c0,-0.00405906 0.0033189,-0.00737795 0.00737795,-0.00737795z"/></g><text x="0" y="15.254587" fill="#000000" font-size="5px" font-weight="bold" font-family="'Helvetica Neue', Helvetica, Arial-Unicode, Arial, Sans-serif">Created by Andy Mc</text><text x="0" y="20.254587" fill="#000000" font-size="5px" font-weight="bold" font-family="'Helvetica Neue', Helvetica, Arial-Unicode, Arial, Sans-serif">from the Noun Project</text></svg>