<?xml version="1.0" encoding="utf-8"?>
<svg version="1.1" x="0px" y="0px" style="enable-background:new 0 0 100 100;" viewBox="0 0 100 100" xmlns="http://www.w3.org/2000/svg">
  <defs>
    <pattern id="pattern-0" x="0" y="0" width="20" height="20" patternUnits="userSpaceOnUse" viewBox="0 0 100 100">
      <path d="M 0 0 L 50 0 L 50 100 L 0 100 Z" style="fill: black;"/>
    </pattern>
  </defs>
  <g transform="matrix(1.093091, 0, 0, 1.329834, -4.492591, -31.159742)">
    <path d="M 46.7 26.6 L 82.1 26.6 C 84.1 26.6 85.9 27.9 86.4 29.8 C 83.7 30.4 76.986 33.668 74.621 37.175 L 46.7 35.4 C 44.2 35.4 42.2 33.4 42.2 31 C 42.2 28.6 44.2 26.6 46.7 26.6 Z M 92.7 85.9 C 92.7 88.3 90.7 90.3 88.2 90.3 C 85.7 90.3 76.731 78.537 76.731 76.137 L 76.437 39.628 C 76.437 37.228 85.7 32 88.2 32 C 90.7 32 92.7 34 92.7 36.4 L 92.7 85.9 Z M 82.3 95.2 L 46.7 95.2 C 44.2 95.2 42.2 93.2 42.2 90.8 C 42.2 88.4 44.2 86.4 46.7 86.4 L 75.015 78.654 C 76.197 81.896 83.4 91.8 86.2 92.6 C 85.7 94.1 84.1 95.2 82.3 95.2 Z" style="fill-rule: evenodd; mix-blend-mode: darken; stroke-width: 0.825449; stroke-opacity: 0.7; stroke: rgba(0, 0, 0, 0); fill: rgba(220, 18, 0, 0.71);"/>
    <path d="M 89 29.7 C 88.4 26.6 85.6 24.3 82.2 24.3 L 46.7 24.3 C 43.4 24.3 40.6 26.6 39.9 29.7 L 10.6 29.7 C 7.5 29.7 5 32.2 5 35.2 L 5 86.6 C 5 89.6 7.5 92.1 10.6 92.1 L 39.9 92.1 C 40.5 95.3 43.3 97.8 46.7 97.8 L 82.1 97.8 C 85.2 97.8 87.9 95.7 88.7 92.9 C 92.2 92.5 94.9 89.6 94.9 86.1 L 94.9 36.4 C 95.1 33 92.5 30.1 89 29.7 Z" style="mix-blend-mode: darken; stroke-width: 0.825449; stroke-opacity: 0.6; stroke: rgba(0, 0, 0, 0.62); fill: rgba(255, 17, 0, 0.72);"/>
    <path d="M 39.9 89.5 L 10.6 89.5 C 8.9 89.5 7.4 88.1 7.4 86.4 L 7.4 35.1 C 7.4 33.4 8.8 32 10.6 32 L 39.9 32 C 40.4 35.3 43.3 37.8 46.7 37.8 L 81.1 37.8 L 81.1 83.9 L 46.7 83.9 C 43.3 83.9 40.5 86.3 39.9 89.5 Z" style="fill-rule: evenodd; mix-blend-mode: darken; stroke-opacity: 0; stroke-width: 0; stroke: rgb(0, 0, 0); fill: rgb(255, 110, 100); fill-opacity: 0;"/>
    <text x="0" y="126" style="fill: rgb(244, 67, 54); font-family: &quot;Helvetica Neue&quot;, Helvetica, Arial-Unicode, Arial, sans-serif; font-size: 5px; font-weight: bold; stroke: rgb(0, 0, 0); stroke-opacity: 0; stroke-width: 0px; white-space: pre;">Created by Cryssac Franson Aldo.E</text>
    <text x="0" y="131" style="fill: rgb(244, 67, 54); font-family: &quot;Helvetica Neue&quot;, Helvetica, Arial-Unicode, Arial, sans-serif; font-size: 5px; font-weight: bold; stroke: rgb(0, 0, 0); stroke-opacity: 0; stroke-width: 0px; white-space: pre;">from the Noun Project</text>
    <path style="stroke: rgb(0, 0, 0); fill: rgb(244, 67, 54);" d="M 28.944 26.82"/>
  </g>
</svg>