<?xml version="1.0" encoding="utf-8"?>
<svg version="1.1" x="0px" y="0px" style="enable-background:new 0 0 100 100;" viewBox="0 0 100 100" xmlns="http://www.w3.org/2000/svg">
  <defs>
    <pattern id="pattern-0" x="0" y="0" width="20" height="20" patternUnits="userSpaceOnUse" viewBox="0 0 100 100">
      <path d="M 0 0 L 50 0 L 50 100 L 0 100 Z" style="fill: black;"/>
    </pattern>
  </defs>
  <g transform="matrix(1.093091, 0, 0, 1.329834, -4.4926, -31.15975)">
    <path d="M 46.7 26.6 L 82.1 26.6 C 84.1 26.6 86.096 28.384 86.596 30.284 C 83.896 30.884 76.986 36.331 74.621 39.838 L 46.7 35.4 C 44.2 35.4 42.2 33.4 42.2 31 C 42.2 28.6 44.2 26.6 46.7 26.6 Z M 82.3 95.2 L 46.7 95.2 C 44.2 95.2 42.2 93.2 42.2 90.8 C 42.2 88.4 44.2 86.4 46.7 86.4 L 75.015 78.654 C 76.197 81.896 83.4 91.8 86.2 92.6 C 85.7 94.1 84.1 95.2 82.3 95.2 Z M 92.7 85.9 C 92.7 88.3 90.7 90.3 88.2 90.3 C 85.7 90.3 76.731 78.537 76.731 76.137 L 76.241 42.855 C 76.241 40.455 85.7 32 88.2 32 C 90.7 32 92.7 34 92.7 36.4 Z" style="mix-blend-mode: darken; stroke-width: 0.825449; stroke-opacity: 0.7; stroke: rgba(0, 0, 0, 0); fill: rgb(1, 167, 217);"/>
    <path d="M 88.804 29.861 C 88.204 26.761 85.404 24.461 82.004 24.461 C 82.004 24.651 46.504 24.465 46.504 24.461 C 43.204 24.461 40.404 26.761 39.704 29.861 L 10.404 29.861 C 7.304 29.861 4.804 32.361 4.804 35.361 L 4.804 86.761 C 4.804 89.761 7.304 92.261 10.404 92.261 L 39.704 92.261 C 40.304 95.461 43.104 97.961 46.504 97.961 L 81.904 97.961 C 85.004 97.961 87.704 95.861 88.504 93.061 C 92.004 92.661 94.704 89.761 94.704 86.261 L 94.704 36.561 C 94.904 33.161 92.304 30.261 88.804 29.861 Z" style="mix-blend-mode: darken; stroke-width: 0.825449; stroke-opacity: 0.6; stroke: rgba(0, 0, 0, 0.62); fill: rgb(0, 197, 255);"/>
    <path d="M 39.9 89.5 L 10.6 89.5 C 8.9 89.5 7.4 88.1 7.4 86.4 L 7.4 35.1 C 7.4 33.4 8.8 32 10.6 32 L 39.9 32 C 40.4 35.3 43.3 37.8 46.7 37.8 L 81.1 37.8 L 81.1 83.9 L 46.7 83.9 C 43.3 83.9 40.5 86.3 39.9 89.5 Z" style="fill-rule: evenodd; mix-blend-mode: darken; stroke-opacity: 0; stroke-width: 0; stroke: rgb(0, 0, 0); fill: rgb(255, 204, 62); visibility: hidden;"/>
    <text x="0" y="126" style="fill: rgb(255, 204, 62); font-family: &quot;Helvetica Neue&quot;, Helvetica, Arial-Unicode, Arial, sans-serif; font-size: 5px; font-weight: bold; stroke: rgb(0, 0, 0); stroke-opacity: 0; stroke-width: 0px; visibility: hidden; white-space: pre;">Created by Cryssac Franson Aldo.E</text>
    <text x="0" y="131" style="fill: rgb(255, 204, 62); font-family: &quot;Helvetica Neue&quot;, Helvetica, Arial-Unicode, Arial, sans-serif; font-size: 5px; font-weight: bold; stroke: rgb(0, 0, 0); stroke-opacity: 0; stroke-width: 0px; visibility: hidden; white-space: pre;">from the Noun Project</text>
    <path style="stroke: rgb(0, 0, 0); fill: rgb(255, 204, 62);" d="M 28.944 26.82"/>
  </g>
</svg>