<?xml version="1.0" encoding="utf-8"?>
<svg version="1.1" x="0px" y="0px" viewBox="-284 377 41.1 50" style="enable-background:new -284 377 41.1 40;" xmlns="http://www.w3.org/2000/svg">
  <g transform="matrix(0.702382, 0, 0, 0.740008, -78.605049, 105.89679)">
    <path d="M-249.1,395.3c0.1,0.5,0.1,1.1,0.1,1.6c0,8.3-6.7,15-15,15c-8.3,0-15-6.7-15-15s6.7-15,15-15c3.2,0,6.2,1,8.6,2.7l3.5-3.5   c-3.4-2.6-7.6-4.1-12.1-4.1c-11,0-20,9-20,20s9,20,20,20c11,0.1,20-9,20-20c0-2-0.3-4-0.9-5.8L-249.1,395.3z" style="fill-opacity: 0.05;"/>
  </g>
  <polygon points="-251.601 387.544 -265.72 402.492 -270.075 397.904 -272.462 400.42 -268.108 405.008 -268.108 405.008 -265.72 407.524 -249.214 390.06" style="fill-opacity: 0.05;"/>
  <text x="-284" y="432" transform="matrix(0.702382, 0, 0, 0.740008, -78.605049, 105.89679)" style="fill-opacity: 0.05; font-family: &quot;Helvetica Neue&quot;, Helvetica, Arial-Unicode, Arial, sans-serif; font-size: 5px; font-weight: bold; visibility: hidden; white-space: pre;">Created by David Morcinek</text>
  <text x="-284" y="437" transform="matrix(0.702382, 0, 0, 0.740008, -78.605049, 105.89679)" style="fill-opacity: 0.05; font-family: &quot;Helvetica Neue&quot;, Helvetica, Arial-Unicode, Arial, sans-serif; font-size: 5px; font-weight: bold; visibility: hidden; white-space: pre;">from the Noun Project</text>
</svg>