<svg xmlns="http://www.w3.org/2000/svg" xmlns:xlink="http://www.w3.org/1999/xlink" version="1.1" x="0px" y="0px" viewBox="0 0 100 125" enable-background="new 0 0 100 100" xml:space="preserve"><path d="M49.999,2.35C23.726,2.35,2.35,23.727,2.35,50.002c0,26.274,21.376,47.648,47.649,47.648  c26.275,0,47.651-21.374,47.651-47.648C97.65,23.727,76.274,2.35,49.999,2.35z M49.999,85.375  c-19.503,0-35.371-15.869-35.371-35.374c0-19.507,15.867-35.375,35.371-35.375c19.507,0,35.377,15.868,35.377,35.375  C85.376,69.506,69.504,85.375,49.999,85.375z M31.833,68.081c-1.196-1.203-3.138-1.21-4.342-0.018  c-1.206,1.191-1.21,3.138-0.018,4.342l0.203,0.205c0.601,0.587,1.376,0.881,2.154,0.881c0.795,0,1.588-0.309,2.187-0.916  c1.189-1.208,1.173-3.153-0.035-4.343L31.833,68.081z M29.562,32.924c0.794,0,1.592-0.31,2.193-0.929l0.145-0.139  c1.2-1.197,1.21-3.138,0.016-4.343c-1.193-1.202-3.134-1.211-4.339-0.018l-0.214,0.216c-1.184,1.214-1.161,3.157,0.054,4.342  C28.013,32.634,28.786,32.924,29.562,32.924z M21.3,46.902c-1.694,0-3.07,1.401-3.07,3.099l0.003,0.216  c0.011,1.688,1.384,3.047,3.067,3.047c0.009,0,0.017,0,0.023,0c1.695-0.015,3.058-1.397,3.047-3.094l-0.003-0.231  C24.368,48.246,22.994,46.902,21.3,46.902z M50.166,75.63h-0.254c-1.695,0-3.026,1.375-3.026,3.07c0,1.696,1.42,3.068,3.114,3.068  h0.167c1.696,0,3.069-1.374,3.069-3.068C53.234,77.005,51.861,75.63,50.166,75.63z M68.222,68.027l-0.17,0.171  c-1.196,1.198-1.196,3.144,0,4.339c0.599,0.6,1.386,0.9,2.173,0.9c0.783,0,1.566-0.301,2.169-0.9l0.186-0.188  c1.195-1.203,1.187-3.148-0.017-4.341C71.358,66.812,69.414,66.825,68.222,68.027z M81.77,49.73  c-0.011-1.698-1.407-3.078-3.089-3.054c-1.688,0.011-3.061,1.394-3.051,3.089l0.003,0.354c0,1.692,1.375,3.07,3.069,3.07  c1.695,0,3.067-1.378,3.067-3.07V49.73z M68.137,31.885c0.598,0.6,1.382,0.9,2.17,0.9c0.783,0,1.571-0.299,2.169-0.9  c1.196-1.199,1.196-3.142,0-4.338l-0.206-0.205c-1.215-1.185-3.158-1.159-4.34,0.053c-1.182,1.212-1.158,3.157,0.053,4.34  L68.137,31.885z M54.963,49.636c-0.029-0.31-0.075-0.615-0.151-0.906l-2.35-21.509c0-1.647-1.336-2.986-2.982-2.986  c-1.65,0-2.986,1.338-2.986,2.986L44.147,48.73c-0.12,0.448-0.187,0.917-0.187,1.402c0,3.035,2.446,5.496,5.479,5.517l10.366,8.111  c0.96,0.96,2.523,0.96,3.481-0.002c0.964-0.96,0.959-2.521,0-3.483L54.963,49.636z M49.479,53.293c-1.854,0-3.355-1.501-3.355-3.356  c0-1.853,1.502-3.354,3.355-3.354c1.851,0,3.354,1.501,3.354,3.354C52.834,51.792,51.33,53.293,49.479,53.293z"/><text x="0" y="115" fill="#000000" font-size="5px" font-weight="bold" font-family="'Helvetica Neue', Helvetica, Arial-Unicode, Arial, Sans-serif">Created by Samy Menai</text><text x="0" y="120" fill="#000000" font-size="5px" font-weight="bold" font-family="'Helvetica Neue', Helvetica, Arial-Unicode, Arial, Sans-serif">from the Noun Project</text></svg>