<?xml version="1.0" encoding="utf-8"?>
<svg version="1.1" x="0px" y="0px" viewBox="0 0 96.24463653564453 96.03004455566406" enable-background="new 0 0 100 100" xmlns="http://www.w3.org/2000/svg">
  <path d="M 48.133 0.35 C 21.86 0.35 0.484 21.727 0.484 48.002 C 0.484 74.276 21.86 95.65 48.133 95.65 C 74.408 95.65 95.784 74.276 95.784 48.002 C 95.784 21.727 74.408 0.35 48.133 0.35 Z M 48.133 83.375 C 28.63 83.375 12.762 67.506 12.762 48.001 C 12.762 28.494 28.629 12.626 48.133 12.626 C 67.64 12.626 83.51 28.494 83.51 48.001 C 83.51 67.506 67.638 83.375 48.133 83.375 Z M 29.967 66.081 C 28.771 64.878 26.829 64.871 25.625 66.063 C 24.419 67.254 24.415 69.201 25.607 70.405 L 25.81 70.61 C 26.411 71.197 27.186 71.491 27.964 71.491 C 28.759 71.491 29.552 71.182 30.151 70.575 C 31.34 69.367 31.324 67.422 30.116 66.232 L 29.967 66.081 Z M 27.696 30.924 C 28.49 30.924 29.288 30.614 29.889 29.995 L 30.034 29.856 C 31.234 28.659 31.244 26.718 30.05 25.513 C 28.857 24.311 26.916 24.302 25.711 25.495 L 25.497 25.711 C 24.313 26.925 24.336 28.868 25.551 30.053 C 26.147 30.634 26.92 30.924 27.696 30.924 Z M 19.434 44.902 C 17.74 44.902 16.364 46.303 16.364 48.001 L 16.367 48.217 C 16.378 49.905 17.751 51.264 19.434 51.264 C 19.443 51.264 19.451 51.264 19.457 51.264 C 21.152 51.249 22.515 49.867 22.504 48.17 L 22.501 47.939 C 22.502 46.246 21.128 44.902 19.434 44.902 Z M 48.3 73.63 L 48.046 73.63 C 46.351 73.63 45.02 75.005 45.02 76.7 C 45.02 78.396 46.44 79.768 48.134 79.768 L 48.301 79.768 C 49.997 79.768 51.37 78.394 51.37 76.7 C 51.368 75.005 49.995 73.63 48.3 73.63 Z M 66.356 66.027 L 66.186 66.198 C 64.99 67.396 64.99 69.342 66.186 70.537 C 66.785 71.137 67.572 71.437 68.359 71.437 C 69.142 71.437 69.925 71.136 70.528 70.537 L 70.714 70.349 C 71.909 69.146 71.901 67.201 70.697 66.008 C 69.492 64.812 67.548 64.825 66.356 66.027 Z M 79.904 47.73 C 79.893 46.032 78.497 44.652 76.815 44.676 C 75.127 44.687 73.754 46.07 73.764 47.765 L 73.767 48.119 C 73.767 49.811 75.142 51.189 76.836 51.189 C 78.531 51.189 79.903 49.811 79.903 48.119 L 79.903 47.73 Z M 66.271 29.885 C 66.869 30.485 67.653 30.785 68.441 30.785 C 69.224 30.785 70.012 30.486 70.61 29.885 C 71.806 28.686 71.806 26.743 70.61 25.547 L 70.404 25.342 C 69.189 24.157 67.246 24.183 66.064 25.395 C 64.882 26.607 64.906 28.552 66.117 29.735 L 66.271 29.885 Z M 53.097 47.636 C 53.068 47.326 53.022 47.021 52.946 46.73 L 50.596 25.221 C 50.596 23.574 49.26 22.235 47.614 22.235 C 45.964 22.235 44.628 23.573 44.628 25.221 L 42.281 46.73 C 42.161 47.178 42.094 47.647 42.094 48.132 C 42.094 51.167 44.54 53.628 47.573 53.649 L 57.939 61.76 C 58.899 62.72 60.462 62.72 61.42 61.758 C 62.384 60.798 62.379 59.237 61.42 58.275 L 53.097 47.636 Z M 47.613 51.293 C 45.759 51.293 44.258 49.792 44.258 47.937 C 44.258 46.084 45.76 44.583 47.613 44.583 C 49.464 44.583 50.967 46.084 50.967 47.937 C 50.968 49.792 49.464 51.293 47.613 51.293 Z" style="fill: rgb(76, 175, 80);"/>
  <text x="0" y="115" fill="#000000" font-size="5px" font-weight="bold" font-family="'Helvetica Neue', Helvetica, Arial-Unicode, Arial, Sans-serif" style="white-space: pre; visibility: hidden;">Created by Samy Menai</text>
  <text x="0" y="120" fill="#000000" font-size="5px" font-weight="bold" font-family="'Helvetica Neue', Helvetica, Arial-Unicode, Arial, Sans-serif" style="white-space: pre; visibility: hidden;">from the Noun Project</text>
</svg>