<?xml version="1.0" encoding="utf-8"?>
<svg version="1.1" style="shape-rendering:geometricPrecision;text-rendering:geometricPrecision;image-rendering:optimizeQuality;" viewBox="0 0 298 230.35137939453125" x="0px" y="0px" fill-rule="evenodd" clip-rule="evenodd" xmlns="http://www.w3.org/2000/svg">
  <defs>
    <style type="text/css">
   
    .fil1 {fill:black}
    .fil0 {fill:black;fill-rule:nonzero}
   
  </style>
  </defs>
  <g>
    <path class="fil0" d="M228 145l-131 15c-16,2 -9,16 0,16l136 0c10,0 10,15 0,15l-136 0c-23,0 -30,-22 -21,-35l-37 -132 -31 0c-11,0 -11,-16 0,-16l37 0c4,0 7,3 8,6l8 30 139 0c0,30 24,53 53,54l-6 21c-5,18 -4,24 -19,26z" style="fill: rgb(255, 255, 255);"/>
    <path class="fil0" d="M113 195c10,0 17,8 17,17 0,9 -7,17 -17,17 -9,0 -17,-8 -17,-17 0,-9 8,-17 17,-17zm0 12c-2,0 -5,2 -5,5 0,3 3,5 5,5 3,0 6,-2 6,-5 0,-3 -3,-5 -6,-5z" style="fill: rgb(255, 255, 255);"/>
    <path class="fil0" d="M205 195c10,0 17,8 17,17 0,9 -7,17 -17,17 -9,0 -17,-8 -17,-17 0,-9 8,-17 17,-17zm0 12c-2,0 -5,2 -5,5 0,3 3,5 5,5 3,0 6,-2 6,-5 0,-3 -3,-5 -6,-5z" style="fill: rgb(255, 255, 255);"/>
    <path class="fil1" d="M254 0c24,0 44,20 44,44 0,24 -20,44 -44,44 -24,0 -44,-20 -44,-44 0,-24 20,-44 44,-44zm-1 64c-3,3 -8,2 -10,-1l-18 -17c-6,-6 4,-16 10,-10l13 13 25 -25c6,-6 16,3 10,10l-30 30z" style="fill: rgb(255, 255, 255);"/>
  </g>
</svg>