<?xml version="1.0" encoding="utf-8"?>
<svg version="1.1" x="0px" y="0px" viewBox="0 0 100 125" style="enable-background:new 0 0 100 100;" xmlns="http://www.w3.org/2000/svg">
  <style type="text/css">
	.st0{fill-rule:evenodd;clip-rule:evenodd;}
</style>
  <g>
    <g>
      <path class="st0" d="M61.7,20.8c-0.5-0.5-1.3-0.5-1.8,0L16.1,64.6c-0.5,0.5-0.5,1.3,0,1.8l16.4,16.4c0.5,0.5,1.3,0.5,1.8,0    l43.8-43.8c0.5-0.5,0.5-1.3,0-1.8L61.7,20.8z M12.2,68.9L9.5,88.5c-0.1,0.6,0.4,1.1,1,1l19.6-2.8c0.6-0.1,1.2-0.7,1.3-1.3    L13.6,67.6C12.9,67.7,12.3,68.3,12.2,68.9z M89.1,26.3L72.7,9.8c-0.5-0.5-1.3-0.5-1.8,0l-7.3,7.3c-0.5,0.5-0.5,1.3,0,1.8L80,35.4    c0.5,0.5,1.3,0.5,1.8,0l7.3-7.3C89.6,27.6,89.6,26.8,89.1,26.3z" style="fill: rgb(255, 164, 0);"/>
    </g>
  </g>
  <text x="0" y="115" style="fill: rgba(0, 0, 0, 0.682); font-family: &quot;Helvetica Neue&quot;, Helvetica, Arial-Unicode, Arial, sans-serif; font-size: 5px; font-weight: bold; visibility: hidden; white-space: pre;">Created by Rohith M S</text>
  <text x="0" y="120" style="fill: rgba(0, 0, 0, 0.682); font-family: &quot;Helvetica Neue&quot;, Helvetica, Arial-Unicode, Arial, sans-serif; font-size: 5px; font-weight: bold; visibility: hidden; white-space: pre;">from the Noun Project</text>
</svg>