<?xml version="1.0" encoding="utf-8"?>
<svg version="1.1" x="0px" y="0px" viewBox="0 0 48 60" enable-background="new 0 0 48 48" xmlns="http://www.w3.org/2000/svg">
  <g>
    <path d="M17.5,33.3l5.4-5.4c1.8,0.7,3.9,0.4,5.4-1.1c1.2-1.2,1.6-2.8,1.4-4.3L28,24.2c-1.1,1.1-3,1.1-4.1,0v0   c-1.1-1.1-1.1-3,0-4.1l1.7-1.7c-1.5-0.2-3.1,0.2-4.3,1.4c-1.5,1.5-1.8,3.6-1.1,5.4L7.3,38c-1.8-0.7-3.9-0.4-5.4,1.1   c-1.2,1.2-1.6,2.8-1.4,4.3l1.7-1.7c1.1-1.1,3-1.1,4.1,0l0,0c1.1,1.1,1.1,3,0,4.1l-1.7,1.7c1.5,0.2,3.1-0.2,4.3-1.4   c1.5-1.5,1.8-3.6,1.1-5.4L17.5,33.3z" style="fill: rgb(66, 133, 244);"/>
    <path d="M9.7,0.5v32.1l5.4-5.4V9.7h27v23.9H20.2l-4.7,4.7h32V0.5H9.7z M42.1,6.2h-5.6V4.1h5.6V6.2z" style="fill: rgb(66, 133, 244);"/>
  </g>
  <text x="0" y="63" style="fill: rgb(66, 133, 244); font-family: &quot;Helvetica Neue&quot;, Helvetica, Arial-Unicode, Arial, sans-serif; font-size: 5px; font-weight: bold; visibility: hidden; white-space: pre;">Created by Creative Stall</text>
  <text x="0" y="68" style="fill: rgb(66, 133, 244); font-family: &quot;Helvetica Neue&quot;, Helvetica, Arial-Unicode, Arial, sans-serif; font-size: 5px; font-weight: bold; visibility: hidden; white-space: pre;">from the Noun Project</text>
</svg>