<?xml version="1.0" encoding="utf-8"?>
<svg data-name="Layer 1" viewBox="0 0 100 125" x="0px" y="0px" xmlns="http://www.w3.org/2000/svg" xmlns:bx="https://boxy-svg.com">
  <title>icon base_1</title>
  <path d="M 51.711 66.909 C 51.704 66.676 51.626 66.451 51.486 66.265 C 50.289 64.825 49.327 63.59 48.6 62.559 C 49.009 61.773 49.353 60.953 49.626 60.109 L 54.597 59.336 C 54.808 59.303 54.995 59.181 55.11 59.001 C 55.254 58.817 55.333 58.59 55.335 58.356 L 55.335 52.414 C 55.341 52.178 55.261 51.949 55.11 51.769 C 54.974 51.596 54.781 51.477 54.565 51.434 L 49.69 50.693 C 49.384 49.789 49.02 48.906 48.6 48.05 C 48.92 47.578 49.401 46.933 50.043 46.117 C 50.684 45.3 51.133 44.72 51.39 44.376 C 51.527 44.199 51.606 43.982 51.614 43.758 C 51.614 43.178 50.075 41.459 46.996 38.601 C 46.808 38.439 46.57 38.348 46.322 38.344 C 46.088 38.335 45.859 38.416 45.681 38.569 L 41.865 41.457 C 41.095 41.05 40.29 40.715 39.459 40.458 L 38.721 35.527 C 38.696 35.302 38.58 35.097 38.401 34.96 C 38.223 34.803 37.996 34.716 37.759 34.715 L 31.794 34.715 C 31.326 34.694 30.915 35.025 30.832 35.488 C 30.475 37.124 30.228 38.782 30.094 40.451 C 29.243 40.723 28.417 41.068 27.625 41.482 L 23.969 38.601 C 23.773 38.457 23.538 38.378 23.295 38.376 C 22.867 38.376 22.012 39.02 20.729 40.309 C 19.799 41.182 18.931 42.119 18.131 43.113 C 17.979 43.292 17.899 43.522 17.907 43.758 C 17.919 43.99 17.997 44.213 18.131 44.402 C 19.329 45.842 20.291 47.077 21.018 48.108 C 20.608 48.894 20.265 49.714 19.992 50.557 L 15.021 51.331 C 14.81 51.363 14.623 51.486 14.507 51.666 C 14.363 51.85 14.284 52.077 14.283 52.311 L 14.283 58.273 C 14.277 58.508 14.356 58.737 14.507 58.917 C 14.639 59.091 14.836 59.203 15.053 59.226 L 19.927 60 C 20.224 60.912 20.6 61.796 21.05 62.642 C 20.708 63.115 20.205 63.77 19.543 64.608 C 18.88 65.446 18.441 66.016 18.228 66.316 C 18.092 66.492 18.014 66.706 18.003 66.929 C 18.003 67.509 19.543 69.227 22.622 72.085 C 22.809 72.247 23.048 72.338 23.295 72.343 C 23.53 72.358 23.762 72.277 23.936 72.117 L 27.753 69.236 C 28.522 69.643 29.328 69.978 30.158 70.235 L 30.896 75.166 C 30.923 75.389 31.039 75.591 31.217 75.727 C 31.395 75.881 31.623 75.966 31.858 75.965 L 37.823 75.965 C 38.292 75.985 38.703 75.655 38.786 75.192 C 39.13 73.54 39.366 71.867 39.491 70.184 C 40.343 69.927 41.17 69.593 41.961 69.184 L 45.649 72.117 C 45.844 72.262 46.08 72.34 46.322 72.343 C 46.75 72.343 47.59 71.698 48.843 70.409 C 49.779 69.499 50.662 68.535 51.486 67.522 C 51.641 67.357 51.723 67.136 51.711 66.909 Z M 40.582 61.16 C 39.07 62.728 36.982 63.603 34.809 63.577 C 30.287 63.577 26.616 59.903 26.598 55.359 C 26.591 50.798 30.269 47.096 34.809 47.096 C 39.348 47.096 43.026 50.798 43.019 55.359 C 43.036 57.548 42.154 59.646 40.582 61.16 Z" style="fill: rgb(226, 149, 7);"/>
  <path d="M 71.082 68.592 C 70.822 68 70.499 67.438 70.12 66.916 C 71.21 64.484 71.755 62.995 71.755 62.449 C 71.752 62.357 71.704 62.273 71.627 62.224 C 69.061 60.72 67.736 59.968 67.65 59.968 L 67.458 60.032 C 66.381 61.155 65.395 62.362 64.507 63.641 C 64.08 63.599 63.759 63.577 63.545 63.577 C 63.333 63.577 63.013 63.577 62.583 63.641 C 62.284 63.19 61.728 62.464 60.915 61.463 C 60.103 60.462 59.611 59.961 59.44 59.961 C 59.108 60.11 58.786 60.283 58.478 60.477 L 56.618 61.598 C 55.955 61.985 55.581 62.2 55.495 62.243 C 55.411 62.28 55.35 62.358 55.335 62.449 C 55.335 62.986 55.88 64.469 56.97 66.896 C 56.591 67.419 56.268 67.981 56.008 68.572 C 52.822 68.894 51.229 69.227 51.229 69.571 L 51.229 74.083 C 51.229 74.427 52.822 74.76 56.008 75.082 C 56.27 75.673 56.593 76.234 56.97 76.758 C 55.88 79.198 55.335 80.685 55.335 81.218 C 55.337 81.31 55.386 81.394 55.463 81.444 C 58.071 82.96 59.397 83.719 59.44 83.719 C 59.611 83.719 60.103 83.214 60.915 82.204 C 61.728 81.194 62.284 80.464 62.583 80.013 C 63.01 80.056 63.331 80.077 63.545 80.077 C 63.759 80.077 64.08 80.056 64.507 80.013 C 64.806 80.442 65.362 81.173 66.175 82.204 C 66.987 83.235 67.479 83.74 67.65 83.719 C 67.821 83.697 69.147 82.935 71.627 81.431 C 71.704 81.381 71.752 81.297 71.755 81.205 C 71.755 80.668 71.21 79.186 70.12 76.758 C 70.497 76.234 70.82 75.673 71.082 75.082 C 74.268 74.773 75.861 74.446 75.861 74.102 L 75.861 69.591 C 75.861 69.247 74.268 68.914 71.082 68.592 Z M 66.444 74.76 C 64.219 76.973 60.445 75.935 59.65 72.893 C 58.855 69.85 61.636 67.084 64.656 67.914 C 66.421 68.399 67.646 70.008 67.65 71.846 C 67.666 72.943 67.229 73.998 66.444 74.76 Z" style="fill: rgb(226, 149, 7);"/>
  <path d="M 71.082 35.591 C 70.822 35 70.499 34.438 70.12 33.916 C 71.21 31.488 71.755 30.005 71.755 29.468 C 71.752 29.376 71.704 29.292 71.627 29.243 C 69.061 27.747 67.736 27 67.65 27 L 67.458 27.064 C 66.381 28.188 65.395 29.394 64.507 30.674 C 64.08 30.631 63.759 30.609 63.545 30.609 C 63.333 30.609 63.013 30.609 62.583 30.674 C 62.284 30.244 61.728 29.52 60.915 28.502 C 60.103 27.483 59.611 26.983 59.44 27 C 59.108 27.149 58.786 27.321 58.478 27.515 L 56.618 28.598 C 55.955 28.985 55.581 29.2 55.495 29.243 C 55.418 29.292 55.37 29.376 55.367 29.468 C 55.367 30.005 55.912 31.488 57.002 33.916 C 56.623 34.438 56.3 35 56.04 35.591 C 52.854 35.914 51.262 36.247 51.262 36.59 L 51.262 41.102 C 51.262 41.446 52.854 41.779 56.04 42.101 C 56.303 42.692 56.625 43.253 57.002 43.777 C 55.891 46.205 55.335 47.687 55.335 48.224 C 55.337 48.316 55.386 48.401 55.463 48.45 C 58.071 49.975 59.397 50.738 59.44 50.738 C 59.611 50.738 60.103 50.233 60.915 49.223 C 61.728 48.214 62.284 47.483 62.583 47.032 C 63.01 47.075 63.331 47.096 63.545 47.096 C 63.759 47.096 64.08 47.075 64.507 47.032 C 64.806 47.483 65.362 48.214 66.175 49.223 C 66.987 50.233 67.479 50.738 67.65 50.738 C 67.821 50.738 69.147 49.975 71.627 48.45 C 71.704 48.401 71.752 48.316 71.755 48.224 C 71.755 47.687 71.21 46.205 70.12 43.777 C 70.497 43.253 70.819 42.692 71.082 42.101 C 74.268 41.779 75.861 41.446 75.861 41.102 L 75.861 36.59 C 75.861 36.247 74.268 35.914 71.082 35.591 Z M 66.444 41.76 C 64.207 44.002 60.393 42.97 59.578 39.902 C 59.487 39.558 59.44 39.203 59.44 38.846 C 59.434 35.671 62.852 33.68 65.591 35.263 C 67.936 36.618 68.359 39.84 66.444 41.76 Z" style="fill: rgb(226, 149, 7);"/>
  <text x="0" y="115" style="fill: rgb(226, 149, 7); font-family: &quot;Helvetica Neue&quot;, Helvetica, Arial-Unicode, Arial, sans-serif; font-size: 5px; font-weight: bold; visibility: hidden; white-space: pre;" transform="matrix(0.641434, 0, 0, 0.644534, 13, 23.132563)">Created by Px icon</text>
  <text x="0" y="120" style="fill: rgb(226, 149, 7); font-family: &quot;Helvetica Neue&quot;, Helvetica, Arial-Unicode, Arial, sans-serif; font-size: 5px; font-weight: bold; visibility: hidden; white-space: pre;" transform="matrix(0.641434, 0, 0, 0.644534, 13, 23.132563)">from the Noun Project</text>
  <path transform="matrix(-0.379637, 0.925135, -0.925136, -0.379637, 329.517754, 26.397099)" d="M 132 249 m -48.924 0 a 48.924 48.924 0 1 0 97.848 0 a 48.924 48.924 0 1 0 -97.848 0 Z M 132 249 m -40.35 0 a 40.35 40.35 0 0 1 80.7 0 a 40.35 40.35 0 0 1 -80.7 0 Z" style="fill: rgb(226, 149, 7);" bx:shape="ring 132 249 40.35 40.35 48.924 48.924 1@da2b905d"/>
  <path style="fill: rgb(216, 216, 216);"/>
</svg>