<?xml version="1.0" encoding="utf-8"?>
<svg data-name="Layer 1" viewBox="0 0 100 125" x="0px" y="0px" xmlns="http://www.w3.org/2000/svg">
  <title>Artboard 10</title>
  <path d="M 58.61 42.85 C 61.597 42.85 63.464 39.617 61.97 37.03 C 61.277 35.83 59.996 35.09 58.61 35.09 L 47.54 35.09 C 44.553 35.09 42.686 38.323 44.18 40.91 C 44.873 42.11 46.154 42.85 47.54 42.85 Z" style="fill: rgb(255, 255, 255);"/>
  <path d="M 47.54 60.94 L 58.61 60.94 C 61.597 60.94 63.464 57.707 61.97 55.12 C 61.277 53.92 59.996 53.18 58.61 53.18 L 47.54 53.18 C 44.553 53.18 42.686 56.413 44.18 59 C 44.873 60.2 46.154 60.94 47.54 60.94 Z" style="fill: rgb(255, 255, 255);"/>
  <path d="M 38.06 32.76 L 36.15 30.85 C 35.515 30.22 34.501 30.19 33.83 30.78 L 25.91 37.78 L 22.23 34.9 C 21.566 34.372 20.614 34.415 20 35 L 18.09 36.91 C 17.442 37.542 17.402 38.57 18 39.25 L 24.68 47 C 25.356 47.76 26.544 47.76 27.22 47 L 38.11 35.1 L 38.11 35.1 C 38.724 34.433 38.701 33.4 38.06 32.76 Z" style="fill: rgb(255, 255, 255);"/>
  <path d="M 38.06 51.59 L 36.15 49.68 C 35.515 49.05 34.501 49.02 33.83 49.61 L 25.91 56.61 L 22.23 53.73 C 21.552 53.201 20.587 53.261 19.98 53.87 L 18.07 55.78 C 17.446 56.413 17.416 57.42 18 58.09 L 24.71 65.84 C 25.386 66.6 26.574 66.6 27.25 65.84 L 38.11 53.94 L 38.11 53.94 C 38.73 53.271 38.708 52.232 38.06 51.59 Z" style="fill: rgb(255, 255, 255);"/>
  <path d="M 36.15 68.52 C 35.515 67.89 34.501 67.86 33.83 68.45 L 25.91 75.45 L 22.23 72.57 C 21.559 72.05 20.607 72.106 20 72.7 L 18.09 74.61 C 17.461 75.238 17.421 76.245 18 76.92 L 24.71 84.67 C 25.386 85.43 26.574 85.43 27.25 84.67 L 38.11 72.77 L 38.11 72.77 C 38.724 72.103 38.701 71.07 38.06 70.43 Z" style="fill: rgb(255, 255, 255);"/>
  <path d="M 13.08 100.21 L 45.14 100.21 L 45.14 94.89 C 45.158 93.63 45.402 92.384 45.86 91.21 L 13.08 91.21 C 11.938 91.221 11.005 90.302 11 89.16 L 11 25 C 10.977 23.839 11.919 22.889 13.08 22.9 L 67 22.9 C 68.13 22.933 69.022 23.87 69 25 L 69 51.64 L 73.77 43.54 C 74.78 41.839 76.245 40.453 78 39.54 L 78 25 C 78.017 18.902 73.098 13.939 67 13.9 L 13.08 13.9 C 6.951 13.894 1.983 18.871 2 25 L 2 89.2 C 2.033 95.294 6.986 100.216 13.08 100.21 Z" style="fill: rgb(255, 255, 255);"/>
  <path d="M 47.54 79 L 52.89 79 L 57.46 71.24 L 47.54 71.24 C 44.553 71.24 42.686 74.473 44.18 77.06 C 44.873 78.26 46.154 79 47.54 79 Z" style="fill: rgb(255, 255, 255);"/>
  <path d="M 85.53 45.95 C 84.429 45.952 83.334 46.097 82.27 46.38 L 81.94 46.49 C 81.428 46.705 81 47.08 80.72 47.56 L 53.53 93.69 C 53.301 94.088 53.184 94.541 53.19 95 L 53.08 109.57 C 53.111 111.223 54.679 112.414 56.28 112 L 56.61 111.89 L 56.9 111.74 L 69.51 104.44 C 69.896 104.216 70.216 103.896 70.44 103.51 L 97.63 57.4 C 97.97 56.813 98.064 56.116 97.89 55.46 C 96.4 49.856 91.328 45.955 85.53 45.95 Z" style="fill: rgb(255, 255, 255);"/>
  <text x="0" y="115" style="fill: rgb(255, 255, 255); font-family: &quot;Helvetica Neue&quot;, Helvetica, Arial-Unicode, Arial, sans-serif; font-size: 5px; font-weight: bold; visibility: hidden; white-space: pre;">Created by Gregor Cresnar</text>
  <text x="0" y="120" style="fill: rgb(255, 255, 255); font-family: &quot;Helvetica Neue&quot;, Helvetica, Arial-Unicode, Arial, sans-serif; font-size: 5px; font-weight: bold; visibility: hidden; white-space: pre;">from the Noun Project</text>
</svg>