<?xml version="1.0" encoding="utf-8"?>
<svg version="1.1" x="0px" y="0px" style="enable-background:new 0 0 100 100;" viewBox="10.327253341674805 10.461372375488281 36 36" xmlns="http://www.w3.org/2000/svg">
  <g transform="matrix(0.189537, 0, 0, 0.175434, 18.850405, 19.680899)" style="visibility: hidden;">
    <path d="M20.2,22.2l4.1,64.4c0.2,3.5,3.3,6.2,6.9,6.2h37.6c3.7,0,6.7-2.7,6.9-6.2l4.1-64.4H20.2z M62.1,63.2c1.5,1.5,1.5,3.9,0,5.4   c-0.7,0.8-1.7,1.1-2.7,1.1c-1,0-1.9-0.4-2.7-1.1L50,61.8l-6.8,6.7c-0.7,0.8-1.7,1.1-2.7,1.1c-1,0-2-0.4-2.7-1.1   c-1.5-1.5-1.5-3.9,0-5.4l6.7-6.7l-6.7-6.8c-1.5-1.5-1.5-3.9,0-5.4s3.9-1.5,5.4,0L50,51l6.7-6.7c1.5-1.5,3.9-1.5,5.4,0   s1.5,3.9,0,5.4l-6.7,6.8L62.1,63.2z" style="fill: rgb(66, 66, 66); fill-opacity: 0.8;"/>
    <path d="M81.9,12.2H64.3l-0.6-3.4C63.6,8,62.9,7.3,62,7.3H38.3c-0.9,0-1.6,0.7-1.8,1.6L36,12.2H18.1c-1.2,0-2.2,1-2.2,2.2V17   c0,1.2,1,2.2,2.2,2.2h63.8c1.2,0,2.2-1,2.2-2.2v-2.6C84.1,13.2,83.1,12.2,81.9,12.2z" style="fill: rgb(66, 66, 66); fill-opacity: 0.8;"/>
  </g>
  <g stroke="none" stroke-width="1" fill="none" fill-rule="evenodd" transform="matrix(0.237538, 0, 0, 0.254509, 21.604527, 21.304235)" style="visibility: hidden;">
    <g transform="translate(-98.000000, -503.000000)">
      <g transform="translate(96.000000, 501.000000)">
        <g transform="translate(30.577329, 30.569497) rotate(-315.000000) translate(-30.577329, -30.569497) translate(13.077329, 5.069497)">
          <path d="M8.30668865,0.378864595 C3.89333881,0.378864595 0.315611875,3.95467558 0.315611875,8.38449753 L0.315611875,42.3732317 C0.315611875,46.7946206 3.90492134,50.3788646 8.30668865,50.3788646 L24.9908384,50.3788646 C29.4041882,50.3788646 32.9819151,46.8030536 32.9819151,42.3732317 L32.9819151,8.38449753 C32.9819151,3.96310855 29.3926057,0.378864595 24.9908384,0.378864595 L8.30668865,0.378864595 Z" stroke-width="2.5" style="stroke: rgb(66, 66, 66); fill-opacity: 0.8;"/>
          <path d="M0.56672679,22.1909249 L33.6632056,22.1909249" stroke-width="6" style="stroke: rgb(66, 66, 66); fill-opacity: 0.8;"/>
          <polygon points="0.767269683 23.5934207 0.484522928 4.60483602 5.73687678 0.628321036 28.3917518 0.628321036 33.0912547 6.6731214 33.0912547 23.436363" style="stroke-opacity: 0.7; stroke: rgb(66, 66, 66); fill: rgb(66, 66, 66); fill-opacity: 0.8;"/>
        </g>
        <path d="M23.3893329,55.7915096 L56.176283,55.7915096" stroke-width="2.5" stroke-linecap="round" style="fill-rule: nonzero; stroke: rgb(66, 66, 66); fill-opacity: 0.8;"/>
      </g>
    </g>
  </g>
  <path d="M 26.568 27.028 L 26.568 35.012 L 23.948 35.012 L 23.948 27.028 L 21.327 27.028 L 25.259 20.961 L 29.188 27.028 L 26.568 27.028 Z M 27.467 29.897 L 31.397 35.961 L 35.327 29.897 L 32.707 29.897 L 32.707 21.896 L 30.087 21.896 L 30.087 29.88 L 27.467 29.88 Z" style="fill: rgb(66, 66, 66); fill-opacity: 0.8;"/>
</svg>