<?xml version="1.0" encoding="utf-8"?>
<svg version="1.1" x="0px" y="0px" style="enable-background:new 0 0 100 100;" viewBox="0 0 36 36" xmlns="http://www.w3.org/2000/svg">
  <g style="visibility: hidden;" transform="matrix(0.305003, 0, 0, 0.309734, 2.748325, 2.513299)">
    <path d="M51.58,41.62c0.17-0.34,0.13-0.76-0.11-1.06L32.51,16.28c-0.19-0.24-0.48-0.38-0.79-0.38c0,0-0.01,0-0.01,0   c-0.31,0-0.6,0.15-0.79,0.4l-17.9,23.82c-0.23,0.3-0.26,0.7-0.1,1.04s0.51,0.55,0.89,0.56l8.62,0.11v30.94c0,0.55,0.45,1,1,1h17.66   c0.55,0,1-0.45,1-1v-30.7l8.59,0.1C51.05,42.15,51.41,41.96,51.58,41.62z" style="fill-opacity: 0.7;"/>
    <path d="M87.08,58.84c-0.17-0.34-0.51-0.55-0.89-0.56l-8.62-0.11V27.23c0-0.55-0.45-1-1-1H58.92c-0.55,0-1,0.45-1,1v30.7l-8.59-0.1   c0,0-0.01,0-0.01,0c-0.38,0-0.73,0.21-0.9,0.56c-0.17,0.34-0.13,0.76,0.11,1.06l18.97,24.27c0.19,0.24,0.48,0.38,0.79,0.38   c0,0,0.01,0,0.01,0c0.31,0,0.6-0.15,0.79-0.4l17.9-23.82C87.21,59.58,87.25,59.17,87.08,58.84z M51.39,59.85l7.52,0.09   c0.26-0.01,0.52-0.1,0.71-0.29c0.19-0.19,0.3-0.44,0.3-0.71V28.23h15.66v30.93c0,0.55,0.44,0.99,0.99,1l7.63,0.09L68.26,81.46   L51.39,59.85z" style="fill-opacity: 0.7;"/>
  </g>
  <text x="0" y="115" fill="#000000" font-size="5px" font-weight="bold" font-family="'Helvetica Neue', Helvetica, Arial-Unicode, Arial, Sans-serif" style="white-space: pre; visibility: hidden;">Created by stolkramaker</text>
  <text x="0" y="120" fill="#000000" font-size="5px" font-weight="bold" font-family="'Helvetica Neue', Helvetica, Arial-Unicode, Arial, Sans-serif" style="white-space: pre; visibility: hidden;">from the Noun Project</text>
  <g transform="matrix(0.336723, 0, 0, 0.331756, 1.147011, 1.408052)" style="visibility: hidden;">
    <path d="M35,29c-3.3,0-6,2.7-6,6s2.7,6,6,6s6-2.7,6-6S38.3,29,35,29z M35,39c-2.2,0-4-1.8-4-4s1.8-4,4-4s4,1.8,4,4S37.2,39,35,39z" style="fill: rgb(255, 255, 255); fill-opacity: 0.7;"/>
    <path d="M81.7,54.3l-36-36C45.5,18.1,45.3,18,45,18H19c-0.6,0-1,0.4-1,1v26c0,0.3,0.1,0.5,0.3,0.7l9.611,9.61   C26.16,57.397,25.1,60.08,25.1,63c0,6.6,5.4,12,12,12c2.993,0,5.731-1.077,7.783-2.918L54.4,81.6c0.365,0.367,0.975,0.425,1.399,0   l26-26C82.1,55.3,82.1,54.7,81.7,54.3z M29,64v-2h16v2H29z M55,79.6l-8.838-8.838C47.942,68.65,49.1,65.992,49.1,63   c0-6.6-5.4-12-12-12c-2.971,0-5.692,1.101-7.794,2.906L20,44.6V20h24.6l35,35L55,79.6z" style="fill: rgb(255, 255, 255); fill-opacity: 0.7;"/>
  </g>
  <path d="M 30.314 4.448 L 17.937 2.294 L 17.8 2.28 L 17.669 2.319 L 5.595 5.862 L 4.828 6.086 L 4.978 6.99 L 8.646 28.829 L 8.735 29.358 L 9.169 29.551 L 18.186 33.585 L 18.485 33.72 L 18.789 33.585 L 28.579 29.177 L 29.059 28.959 L 29.108 28.364 L 31.087 5.506 L 31.171 4.517 L 30.314 4.448 Z M 28.273 28.271 L 18.485 32.678 L 9.47 28.644 L 5.865 7.188 L 18 9.906 L 30.255 5.414 L 28.273 28.271 Z" style="fill: rgb(240, 173, 78); visibility: hidden;"/>
  <path d="M 23.118 22.243 L 23.149 23.091 L 24.752 19.629 L 23.145 18.196 L 23.145 19.128 C 23.145 19.128 21.795 19.028 21.768 16.831 C 21.74 14.638 23.048 13.314 23.048 13.314 C 23.048 13.314 20.266 14.587 20.363 18.564 C 20.363 18.564 20.529 22.486 23.118 22.243 Z" style="fill: rgb(240, 173, 78); visibility: hidden;"/>
  <path d="M 24.518 17.198 L 24.518 16.283 C 24.518 16.283 25.888 16.375 25.862 18.473 C 25.834 20.572 24.598 21.988 24.598 21.988 C 24.598 21.988 27.205 20.468 27.302 16.78 C 27.302 16.78 27.315 13.129 24.554 13.219 L 24.52 12.382 L 22.854 15.75 L 24.518 17.198 Z" style="fill: rgb(240, 173, 78); visibility: hidden;"/>
  <g transform="matrix(0.268435, 0, 0, 0.247045, 4.578248, 5.635397)" style="visibility: hidden;">
    <path d="M20.2,22.2l4.1,64.4c0.2,3.5,3.3,6.2,6.9,6.2h37.6c3.7,0,6.7-2.7,6.9-6.2l4.1-64.4H20.2z M62.1,63.2c1.5,1.5,1.5,3.9,0,5.4   c-0.7,0.8-1.7,1.1-2.7,1.1c-1,0-1.9-0.4-2.7-1.1L50,61.8l-6.8,6.7c-0.7,0.8-1.7,1.1-2.7,1.1c-1,0-2-0.4-2.7-1.1   c-1.5-1.5-1.5-3.9,0-5.4l6.7-6.7l-6.7-6.8c-1.5-1.5-1.5-3.9,0-5.4s3.9-1.5,5.4,0L50,51l6.7-6.7c1.5-1.5,3.9-1.5,5.4,0   s1.5,3.9,0,5.4l-6.7,6.8L62.1,63.2z" style="fill: rgb(255, 255, 255); fill-opacity: 0.7;"/>
    <path d="M81.9,12.2H64.3l-0.6-3.4C63.6,8,62.9,7.3,62,7.3H38.3c-0.9,0-1.6,0.7-1.8,1.6L36,12.2H18.1c-1.2,0-2.2,1-2.2,2.2V17   c0,1.2,1,2.2,2.2,2.2h63.8c1.2,0,2.2-1,2.2-2.2v-2.6C84.1,13.2,83.1,12.2,81.9,12.2z" style="fill: rgb(255, 255, 255); fill-opacity: 0.7;"/>
  </g>
  <g stroke="none" stroke-width="1" fill="none" fill-rule="evenodd" transform="matrix(0.369629, 0, 0, 0.381008, 7.53878, 7.28499)" style="visibility: hidden;">
    <g transform="translate(-98.000000, -503.000000)">
      <g transform="translate(96.000000, 501.000000)">
        <g transform="translate(30.577329, 30.569497) rotate(-315.000000) translate(-30.577329, -30.569497) translate(13.077329, 5.069497)">
          <path d="M8.30668865,0.378864595 C3.89333881,0.378864595 0.315611875,3.95467558 0.315611875,8.38449753 L0.315611875,42.3732317 C0.315611875,46.7946206 3.90492134,50.3788646 8.30668865,50.3788646 L24.9908384,50.3788646 C29.4041882,50.3788646 32.9819151,46.8030536 32.9819151,42.3732317 L32.9819151,8.38449753 C32.9819151,3.96310855 29.3926057,0.378864595 24.9908384,0.378864595 L8.30668865,0.378864595 Z" stroke-width="2.5" style="stroke: rgb(255, 255, 255); stroke-opacity: 0.7;"/>
          <path d="M0.56672679,22.1909249 L33.6632056,22.1909249" stroke-width="6" style="stroke: rgb(255, 255, 255); stroke-opacity: 0.7;"/>
          <polygon points="0.767269683 23.5934207 0.484522928 4.60483602 5.73687678 0.628321036 28.3917518 0.628321036 33.0912547 6.6731214 33.0912547 23.436363" style="stroke: rgb(255, 255, 255); stroke-opacity: 0.7; fill: rgb(255, 255, 255); fill-opacity: 0.7;"/>
        </g>
        <path d="M23.3893329,55.7915096 L56.176283,55.7915096" stroke-width="2.5" stroke-linecap="round" style="fill-rule: nonzero; stroke: rgb(255, 255, 255); stroke-opacity: 0.7;"/>
      </g>
    </g>
  </g>
  <path d="M 15.763 16.36 L 15.763 25.5 L 12.434 25.5 L 12.434 16.36 L 9.101 16.36 L 14.099 9.413 L 19.094 16.36 L 15.763 16.36 Z M 16.906 19.642 L 21.902 26.587 L 26.899 19.642 L 23.568 19.642 L 23.568 10.483 L 20.237 10.483 L 20.237 19.623 L 16.906 19.623 Z" style="fill-opacity: 0.7; fill: rgb(255, 255, 255);"/>
</svg>