<?xml version="1.0" encoding="utf-8"?>
<svg viewBox="24.141624450683594 18.776825666427612 354.6566467285156 162.46351623535156" xmlns="http://www.w3.org/2000/svg">
  <g transform="matrix(3.027153, -0.000004, 0.000003, 3.274306, 19.478477, -86.617432)">
    <path d="M 55.444 9.49 C 53.744 7.89 51.144 7.89 49.444 9.49 L 9.243 46.19 C 7.443 47.89 7.343 50.59 8.943 52.49 C 9.843 53.49 11.043 53.89 12.243 53.89 C 13.343 53.89 14.343 53.59 15.243 52.79 L 52.444 18.89 L 89.644 52.69 C 91.444 54.39 94.344 54.29 95.944 52.39 C 97.644 50.59 97.544 47.69 95.644 46.09 L 55.444 9.49 Z" style="fill-opacity: 0.03; fill: rgb(255, 255, 255);" transform="matrix(0.999848, 0.017284, -0.017621, 0.999848, 0.555871, -0.902345)"/>
    <path d="M 19.13 54.389 L 25.831 95.489 L 45.031 95.489 L 43.23 74.289 C 43.13 73.589 43.63 73.089 44.33 73.089 L 59.53 73.089 C 60.23 73.089 60.73 73.689 60.63 74.289 L 58.831 95.489 L 78.431 95.489 L 85.13 54.389 L 51.93 25.089 L 19.13 54.389 Z" style="fill-opacity: 0.03; fill: rgb(255, 255, 255);" transform="matrix(0.999848, 0.017284, -0.017621, 0.999848, 1.070303, -0.891836)"/>
  </g>
</svg>