<svg xmlns="http://www.w3.org/2000/svg" xmlns:xlink="http://www.w3.org/1999/xlink" version="1.1" x="0px" y="0px" viewBox="0 0 100 125" style="enable-background:new 0 0 100 100;" xml:space="preserve"><g><path d="M53,7.6c-1.7-1.6-4.3-1.6-6,0L6.8,44.3c-1.8,1.7-1.9,4.4-0.3,6.3c0.9,1,2.1,1.4,3.3,1.4c1.1,0,2.1-0.3,3-1.1L50,17   l37.2,33.8c1.8,1.7,4.7,1.6,6.3-0.3c1.7-1.8,1.6-4.7-0.3-6.3L53,7.6z"/><path d="M17.2,52.5l6.7,41.1h19.2l-1.8-21.2c-0.1-0.7,0.4-1.2,1.1-1.2h15.2c0.7,0,1.2,0.6,1.1,1.2l-1.8,21.2h19.6l6.7-41.1L50,23.2   L17.2,52.5z"/></g><text x="0" y="115" fill="#000000" font-size="5px" font-weight="bold" font-family="'Helvetica Neue', Helvetica, Arial-Unicode, Arial, Sans-serif">Created by Shastry</text><text x="0" y="120" fill="#000000" font-size="5px" font-weight="bold" font-family="'Helvetica Neue', Helvetica, Arial-Unicode, Arial, Sans-serif">from the Noun Project</text></svg>