<?xml version="1.0" encoding="utf-8"?>
<svg version="1.1" x="0px" y="0px" viewBox="0 0 191.5743408203125 213.25682067871094" style="enable-background:new 0 0 141.757 209.406;" xmlns="http://www.w3.org/2000/svg">
  <g transform="matrix(1, 0, 0, 1, 2, 2)">
    <ellipse transform="matrix(0.99836, -0.057246, 0.1009, 0.995857, -2.081516, 3.851899)" cx="66.136" cy="22.524" rx="29.866" ry="22.522" style="fill: rgb(76, 175, 80); stroke: rgb(119, 142, 40); stroke-width: 0;"/>
    <path d="M 156.82 132.093 C 154.373 127.261 148.161 124.039 141.289 124.039 L 135.525 124.039 C 135.472 124.513 135.387 124.986 135.242 125.458 C 133.838 130.02 128.517 133.205 122.302 133.205 C 121.303 133.205 120.295 133.119 119.302 132.947 C 105.894 130.626 93.954 125.561 83.82 117.895 C 76.047 112.032 69.349 104.666 63.913 96.005 C 55.843 83.08 53.011 71.364 52.334 68.082 L 52.311 67.975 C 51.808 65.265 52.714 62.635 54.853 60.502 C 56.992 58.37 60.108 56.991 63.622 56.622 C 64.236 56.558 64.861 56.525 65.479 56.525 C 72.063 56.525 77.718 60.229 78.63 65.142 L 78.661 65.294 L 78.684 65.393 L 78.817 65.997 C 78.973 66.641 79.22 67.633 79.588 68.887 C 80.266 71.191 81.476 74.82 83.393 78.998 C 85.057 82.656 88.033 88.311 92.58 93.957 C 91.347 87.46 90.923 80.874 91.343 74.285 C 91.92 63.336 83.728 52.069 69.587 48.983 C 55.548 45.87 39.258 56.249 38.232 72.368 C 36.946 92.561 41.326 112.742 51.083 131.579 C 54.987 139.12 61.92 144.372 69.377 146.94 C 72.013 148.264 75.182 149.04 78.591 149.04 L 78.591 149.038 L 129.831 149.038 L 156.286 201.347 C 158.807 206.336 165.12 209.406 171.817 209.406 C 173.782 209.406 175.778 209.142 177.722 208.586 C 186.3 206.133 190.606 198.912 187.346 192.46 L 156.82 132.093 Z" style="fill: rgb(76, 175, 80); stroke: rgb(119, 142, 40); stroke-width: 0;"/>
    <path d="M 76.992 69.315 C 76.613 68.027 76.356 67.01 76.197 66.336 C 76.119 65.997 76.064 65.746 76.031 65.592 C 76.001 65.436 75.998 65.418 75.998 65.418 C 75.186 61.042 69.809 57.989 63.992 58.603 C 58.178 59.214 54.119 63.256 54.935 67.632 L 54.933 67.632 C 55.044 68.105 57.371 80.821 66.317 95.151 C 70.811 102.309 76.99 109.913 85.703 116.484 C 94.379 123.047 105.77 128.551 119.899 130.997 C 120.703 131.138 121.511 131.205 122.304 131.205 C 127.144 131.205 131.518 128.705 132.655 125.008 C 133.981 120.704 130.416 116.407 124.695 115.411 C 114.894 113.691 107.218 110.026 100.752 105.18 C 91.091 97.944 84.637 87.902 80.88 79.651 C 78.992 75.534 77.747 71.888 76.992 69.315 Z" style="fill: rgb(76, 175, 80); stroke: rgb(119, 142, 40); stroke-width: 0;"/>
    <path d="M 106.344 153.372 L 37.628 153.372 L 36.294 148.71 C 37.013 148.681 25.792 151.699 26.518 151.569 C 32.944 150.407 39.884 157.903 38.338 153.071 L 30.976 129.012 C 29.432 124.179 21.479 124.853 15.053 126.015 C 14.819 126.057 39.237 156.728 39.008 156.779 L 19.713 90.792 C 18.554 86.743 13.254 84.167 7.872 85.039 C 2.487 85.912 -0.934 89.899 0.226 93.95 L 6.314 115.218 L 5.935 115.273 C 4.855 115.429 4.147 116.217 4.356 117.03 C 4.541 117.747 5.374 118.247 6.311 118.247 C 6.436 118.247 6.564 118.237 6.693 118.219 L 7.153 118.153 L 9.762 127.271 L 9.758 127.272 C 8.678 127.431 7.968 128.218 8.179 129.032 C 8.364 129.749 9.2 130.247 10.136 130.247 C 10.262 130.247 10.387 130.238 10.515 130.22 L 10.604 130.207 L 13.346 139.789 C 12.305 139.969 11.631 140.734 11.835 141.531 C 12.019 142.248 12.853 142.747 13.787 142.747 C 13.915 142.747 14.041 142.738 14.172 142.719 L 14.185 142.717 L 19.833 162.45 C 20.821 165.903 24.882 168.372 29.578 168.372 L 106.346 168.372 C 111.85 168.372 116.311 165.014 116.311 160.873 C 116.31 156.73 111.849 153.372 106.344 153.372 Z" style="fill: rgb(76, 175, 80); stroke: rgb(119, 142, 40); stroke-width: 0;"/>
    <path d="M 24.636 191.209 C 25.355 191.08 26.09 191.013 26.82 191.013 C 31.129 191.013 34.847 193.221 35.86 196.381 L 40.446 210.738 L 44.713 224.093 C 45.295 225.91 44.901 227.789 43.602 229.384 C 42.305 230.979 40.257 232.096 37.843 232.534 C 37.124 232.664 36.387 232.73 35.659 232.73 C 31.347 232.73 27.629 230.523 26.616 227.363 L 26.478 226.928 L 32.899 225.994 C 33.505 226.331 34.248 226.537 35.059 226.537 C 37.079 226.537 38.714 225.305 38.714 223.787 C 38.714 222.268 37.079 221.037 35.059 221.037 C 33.339 221.037 31.906 221.934 31.517 223.139 L 25.545 224.008 L 22.5 214.476 L 29.299 213.488 C 29.894 213.805 30.617 213.996 31.403 213.996 C 33.424 213.996 35.059 212.764 35.059 211.246 C 35.059 209.727 33.424 208.496 31.403 208.496 C 29.662 208.496 28.21 209.415 27.843 210.642 L 21.565 211.554 L 18.665 202.478 L 24.933 201.567 C 25.566 201.96 26.365 202.205 27.248 202.205 C 29.268 202.205 30.903 200.973 30.903 199.455 C 30.903 197.936 29.268 196.705 27.248 196.705 C 25.59 196.705 24.205 197.542 23.758 198.68 L 17.738 199.556 C 16.627 195.835 19.691 192.104 24.636 191.209 Z" style="visibility: hidden; fill: rgb(76, 175, 80); stroke: rgb(119, 142, 40); stroke-width: 0;"/>
  </g>
  <text x="2" y="226.406" style="fill: rgb(76, 175, 80); font-family: &quot;Helvetica Neue&quot;, Helvetica, Arial-Unicode, Arial, sans-serif; font-size: 5px; font-weight: bold; stroke: rgb(119, 142, 40); stroke-width: 0px; visibility: hidden; white-space: pre;">Created by Gan Khoon Lay</text>
  <text x="2" y="231.406" style="fill: rgb(76, 175, 80); font-family: &quot;Helvetica Neue&quot;, Helvetica, Arial-Unicode, Arial, sans-serif; font-size: 5px; font-weight: bold; stroke: rgb(119, 142, 40); stroke-width: 0px; visibility: hidden; white-space: pre;">from the Noun Project</text>
</svg>