<?xml version="1.0" encoding="utf-8"?>
<svg version="1.1" x="0px" y="0px" viewBox="0 0 146.26870727539062 213.25682067871094" style="enable-background:new 0 0 141.757 209.406;" xmlns="http://www.w3.org/2000/svg">
  <g transform="matrix(1, 0, 0, 1, 2, 2)">
    <ellipse transform="matrix(0.9971 -0.076 0.076 0.9971 -1.5659 3.8519)" cx="49.816" cy="22.496" rx="22.496" ry="22.494" style="stroke: rgb(119, 142, 40); stroke-width: 0; fill: rgb(244, 67, 54);"/>
    <path d="M117.973,132.093c-1.841-4.832-6.514-8.054-11.684-8.054h-4.336c-0.04,0.474-0.104,0.947-0.213,1.419   c-1.056,4.562-5.059,7.747-9.734,7.747c-0.752,0-1.51-0.086-2.257-0.258c-10.087-2.321-19.069-7.386-26.693-15.052   c-5.847-5.863-10.886-13.229-14.975-21.89C42.01,83.08,39.879,71.364,39.37,68.082l-0.017-0.107   c-0.379-2.71,0.303-5.34,1.912-7.473c1.609-2.132,3.953-3.511,6.597-3.88c0.462-0.064,0.932-0.097,1.397-0.097   c4.953,0,9.207,3.704,9.893,8.617l0.023,0.152l0.018,0.099l0.1,0.604c0.117,0.644,0.303,1.636,0.58,2.89   c0.51,2.304,1.42,5.933,2.862,10.111c1.252,3.658,3.491,9.313,6.911,14.959c-0.927-6.497-1.246-13.083-0.93-19.672   c0.434-10.949-5.729-22.216-16.367-25.302c-10.561-3.113-22.816,7.266-23.588,23.385c-0.967,20.193,2.328,40.374,9.668,59.211   c2.937,7.541,8.152,12.793,13.762,15.361c1.983,1.324,4.367,2.1,6.932,2.1v-0.002H97.67l19.901,52.309   c1.897,4.989,6.646,8.059,11.684,8.059c1.478,0,2.98-0.264,4.442-0.82c6.453-2.453,9.693-9.674,7.24-16.126L117.973,132.093z" style="stroke: rgb(119, 142, 40); stroke-width: 0; fill: rgb(244, 67, 54);"/>
    <path d="M57.92,69.315c-0.285-1.288-0.479-2.305-0.598-2.979c-0.059-0.339-0.1-0.59-0.125-0.744   c-0.023-0.156-0.025-0.174-0.025-0.174c-0.611-4.376-4.656-7.429-9.032-6.815c-4.374,0.611-7.427,4.653-6.813,9.029h-0.002   c0.084,0.473,1.834,13.189,8.564,27.519c3.381,7.158,8.029,14.762,14.584,21.333c6.527,6.563,15.096,12.067,25.725,14.513   c0.605,0.141,1.213,0.208,1.809,0.208c3.641,0,6.932-2.5,7.787-6.197c0.998-4.304-1.684-8.601-5.988-9.597   c-7.373-1.72-13.148-5.385-18.012-10.231c-7.268-7.236-12.123-17.278-14.949-25.529C59.424,75.534,58.488,71.888,57.92,69.315z" style="stroke: rgb(119, 142, 40); stroke-width: 0; fill: rgb(244, 67, 54);"/>
    <path d="M 80.001 153.372 L 28.307 153.372 L 27.303 148.71 C 27.844 148.681 19.403 151.699 19.949 151.569 C 24.783 150.407 30.004 157.903 28.841 153.071 L 23.303 129.012 C 22.141 124.179 16.158 124.853 11.324 126.015 C 11.148 126.057 29.517 156.728 29.345 156.779 L 14.83 90.792 C 13.958 86.743 9.971 84.167 5.922 85.039 C 1.871 85.912 -0.703 89.899 0.17 93.95 L 4.75 115.218 L 4.465 115.273 C 3.652 115.429 3.12 116.217 3.277 117.03 C 3.416 117.747 4.043 118.247 4.748 118.247 C 4.842 118.247 4.938 118.237 5.035 118.219 L 5.381 118.153 L 7.344 127.271 L 7.341 127.272 C 6.528 127.431 5.994 128.218 6.153 129.032 C 6.292 129.749 6.921 130.247 7.625 130.247 C 7.72 130.247 7.814 130.238 7.91 130.22 L 7.977 130.207 L 10.04 139.789 C 9.257 139.969 8.75 140.734 8.903 141.531 C 9.042 142.248 9.669 142.747 10.372 142.747 C 10.468 142.747 10.563 142.738 10.661 142.719 L 10.671 142.717 L 14.92 162.45 C 15.663 165.903 18.718 168.372 22.251 168.372 L 80.002 168.372 C 84.143 168.372 87.499 165.014 87.499 160.873 C 87.498 156.73 84.142 153.372 80.001 153.372 Z" style="stroke: rgb(119, 142, 40); stroke-width: 0; fill: rgb(244, 67, 54);"/>
    <path d="M 18.533 191.209 C 19.074 191.08 19.627 191.013 20.176 191.013 C 23.418 191.013 26.215 193.221 26.977 196.381 L 30.427 210.738 L 33.637 224.093 C 34.075 225.91 33.778 227.789 32.801 229.384 C 31.825 230.979 30.285 232.096 28.469 232.534 C 27.928 232.664 27.373 232.73 26.826 232.73 C 23.582 232.73 20.785 230.523 20.023 227.363 L 19.919 226.928 L 24.749 225.994 C 25.205 226.331 25.764 226.537 26.374 226.537 C 27.894 226.537 29.124 225.305 29.124 223.787 C 29.124 222.268 27.894 221.037 26.374 221.037 C 25.08 221.037 24.002 221.934 23.71 223.139 L 19.217 224.008 L 16.926 214.476 L 22.041 213.488 C 22.489 213.805 23.033 213.996 23.624 213.996 C 25.144 213.996 26.374 212.764 26.374 211.246 C 26.374 209.727 25.144 208.496 23.624 208.496 C 22.314 208.496 21.222 209.415 20.946 210.642 L 16.223 211.554 L 14.041 202.478 L 18.757 201.567 C 19.233 201.96 19.834 202.205 20.498 202.205 C 22.018 202.205 23.248 200.973 23.248 199.455 C 23.248 197.936 22.018 196.705 20.498 196.705 C 19.251 196.705 18.209 197.542 17.873 198.68 L 13.344 199.556 C 12.508 195.835 14.813 192.104 18.533 191.209 Z" style="visibility: hidden; stroke: rgb(119, 142, 40); stroke-width: 0; fill: rgb(244, 67, 54);"/>
  </g>
  <text x="2" y="226.406" style="fill: rgb(76, 175, 80); font-family: &quot;Helvetica Neue&quot;, Helvetica, Arial-Unicode, Arial, sans-serif; font-size: 5px; font-weight: bold; stroke: rgb(119, 142, 40); stroke-width: 0px; visibility: hidden; white-space: pre;">Created by Gan Khoon Lay</text>
  <text x="2" y="231.406" style="fill: rgb(76, 175, 80); font-family: &quot;Helvetica Neue&quot;, Helvetica, Arial-Unicode, Arial, sans-serif; font-size: 5px; font-weight: bold; stroke: rgb(119, 142, 40); stroke-width: 0px; visibility: hidden; white-space: pre;">from the Noun Project</text>
</svg>