<svg xmlns="http://www.w3.org/2000/svg" xmlns:xlink="http://www.w3.org/1999/xlink" version="1.1" x="0px" y="0px" viewBox="0 0 141.757 261.7575" style="enable-background:new 0 0 141.757 209.406;" xml:space="preserve"><g><ellipse transform="matrix(0.9971 -0.076 0.076 0.9971 -1.5659 3.8519)" cx="49.816" cy="22.496" rx="22.496" ry="22.494"/><path d="M117.973,132.093c-1.841-4.832-6.514-8.054-11.684-8.054h-4.336c-0.04,0.474-0.104,0.947-0.213,1.419   c-1.056,4.562-5.059,7.747-9.734,7.747c-0.752,0-1.51-0.086-2.257-0.258c-10.087-2.321-19.069-7.386-26.693-15.052   c-5.847-5.863-10.886-13.229-14.975-21.89C42.01,83.08,39.879,71.364,39.37,68.082l-0.017-0.107   c-0.379-2.71,0.303-5.34,1.912-7.473c1.609-2.132,3.953-3.511,6.597-3.88c0.462-0.064,0.932-0.097,1.397-0.097   c4.953,0,9.207,3.704,9.893,8.617l0.023,0.152l0.018,0.099l0.1,0.604c0.117,0.644,0.303,1.636,0.58,2.89   c0.51,2.304,1.42,5.933,2.862,10.111c1.252,3.658,3.491,9.313,6.911,14.959c-0.927-6.497-1.246-13.083-0.93-19.672   c0.434-10.949-5.729-22.216-16.367-25.302c-10.561-3.113-22.816,7.266-23.588,23.385c-0.967,20.193,2.328,40.374,9.668,59.211   c2.937,7.541,8.152,12.793,13.762,15.361c1.983,1.324,4.367,2.1,6.932,2.1v-0.002H97.67l19.901,52.309   c1.897,4.989,6.646,8.059,11.684,8.059c1.478,0,2.98-0.264,4.442-0.82c6.453-2.453,9.693-9.674,7.24-16.126L117.973,132.093z"/><path d="M57.92,69.315c-0.285-1.288-0.479-2.305-0.598-2.979c-0.059-0.339-0.1-0.59-0.125-0.744   c-0.023-0.156-0.025-0.174-0.025-0.174c-0.611-4.376-4.656-7.429-9.032-6.815c-4.374,0.611-7.427,4.653-6.813,9.029h-0.002   c0.084,0.473,1.834,13.189,8.564,27.519c3.381,7.158,8.029,14.762,14.584,21.333c6.527,6.563,15.096,12.067,25.725,14.513   c0.605,0.141,1.213,0.208,1.809,0.208c3.641,0,6.932-2.5,7.787-6.197c0.998-4.304-1.684-8.601-5.988-9.597   c-7.373-1.72-13.148-5.385-18.012-10.231c-7.268-7.236-12.123-17.278-14.949-25.529C59.424,75.534,58.488,71.888,57.92,69.315z"/><path d="M80.001,153.372H28.307l-1.004-4.662c0.541-0.029,1.087-0.101,1.633-0.231c4.834-1.162,7.809-6.023,6.646-10.855   l-6.662-27.71c-1.162-4.833-6.021-7.81-10.855-6.648c-0.176,0.042-0.344,0.1-0.516,0.151L14.83,90.792   c-0.872-4.049-4.859-6.625-8.908-5.753c-4.051,0.873-6.625,4.86-5.752,8.911l4.58,21.268l-0.285,0.055   c-0.813,0.156-1.345,0.944-1.188,1.757c0.139,0.717,0.766,1.217,1.471,1.217c0.094,0,0.19-0.01,0.287-0.028l0.346-0.066   l1.963,9.118l-0.003,0.001c-0.813,0.159-1.347,0.946-1.188,1.76c0.139,0.717,0.768,1.215,1.472,1.215   c0.095,0,0.189-0.009,0.285-0.027l0.067-0.013l2.063,9.582c-0.783,0.18-1.29,0.945-1.137,1.742   c0.139,0.717,0.766,1.216,1.469,1.216c0.096,0,0.191-0.009,0.289-0.028l0.01-0.002l4.249,19.733   c0.743,3.453,3.798,5.922,7.331,5.922h57.751c4.141,0,7.497-3.358,7.497-7.499C87.498,156.73,84.142,153.372,80.001,153.372z    M18.533,105.209c0.541-0.129,1.094-0.196,1.643-0.196c3.242,0,6.039,2.208,6.801,5.368l6.66,27.712   c0.438,1.817,0.141,3.696-0.836,5.291c-0.976,1.595-2.516,2.712-4.332,3.15c-0.541,0.13-1.096,0.196-1.643,0.196   c-3.244,0-6.041-2.207-6.803-5.367l-0.104-0.435l4.83-0.934c0.456,0.337,1.015,0.543,1.625,0.543c1.52,0,2.75-1.232,2.75-2.75   c0-1.519-1.23-2.75-2.75-2.75c-1.294,0-2.372,0.897-2.664,2.102l-4.493,0.869l-2.291-9.532l5.115-0.988   c0.448,0.317,0.992,0.508,1.583,0.508c1.52,0,2.75-1.232,2.75-2.75c0-1.519-1.23-2.75-2.75-2.75c-1.31,0-2.402,0.919-2.678,2.146   l-4.723,0.912l-2.182-9.076l4.716-0.911c0.476,0.393,1.077,0.638,1.741,0.638c1.52,0,2.75-1.232,2.75-2.75   c0-1.519-1.23-2.75-2.75-2.75c-1.247,0-2.289,0.837-2.625,1.975l-4.529,0.876C12.508,109.835,14.813,106.104,18.533,105.209z"/></g><text x="0" y="224.406" fill="#000000" font-size="5px" font-weight="bold" font-family="'Helvetica Neue', Helvetica, Arial-Unicode, Arial, Sans-serif">Created by Gan Khoon Lay</text><text x="0" y="229.406" fill="#000000" font-size="5px" font-weight="bold" font-family="'Helvetica Neue', Helvetica, Arial-Unicode, Arial, Sans-serif">from the Noun Project</text></svg>