<?xml version="1.0" encoding="utf-8"?>
<svg version="1.1" x="0px" y="0px" viewBox="0 0 36 36" style="enable-background:new 0 0 100 100;" xmlns="http://www.w3.org/2000/svg">
  <g style="visibility: hidden;" transform="matrix(0.305003, 0, 0, 0.309734, 2.748325, 2.513299)">
    <path d="M51.58,41.62c0.17-0.34,0.13-0.76-0.11-1.06L32.51,16.28c-0.19-0.24-0.48-0.38-0.79-0.38c0,0-0.01,0-0.01,0   c-0.31,0-0.6,0.15-0.79,0.4l-17.9,23.82c-0.23,0.3-0.26,0.7-0.1,1.04s0.51,0.55,0.89,0.56l8.62,0.11v30.94c0,0.55,0.45,1,1,1h17.66   c0.55,0,1-0.45,1-1v-30.7l8.59,0.1C51.05,42.15,51.41,41.96,51.58,41.62z" style="fill: rgb(240, 173, 78);"/>
    <path d="M87.08,58.84c-0.17-0.34-0.51-0.55-0.89-0.56l-8.62-0.11V27.23c0-0.55-0.45-1-1-1H58.92c-0.55,0-1,0.45-1,1v30.7l-8.59-0.1   c0,0-0.01,0-0.01,0c-0.38,0-0.73,0.21-0.9,0.56c-0.17,0.34-0.13,0.76,0.11,1.06l18.97,24.27c0.19,0.24,0.48,0.38,0.79,0.38   c0,0,0.01,0,0.01,0c0.31,0,0.6-0.15,0.79-0.4l17.9-23.82C87.21,59.58,87.25,59.17,87.08,58.84z M51.39,59.85l7.52,0.09   c0.26-0.01,0.52-0.1,0.71-0.29c0.19-0.19,0.3-0.44,0.3-0.71V28.23h15.66v30.93c0,0.55,0.44,0.99,0.99,1l7.63,0.09L68.26,81.46   L51.39,59.85z" style="fill: rgb(240, 173, 78);"/>
  </g>
  <text x="0" y="115" fill="#000000" font-size="5px" font-weight="bold" font-family="'Helvetica Neue', Helvetica, Arial-Unicode, Arial, Sans-serif" style="white-space: pre; visibility: hidden;">Created by stolkramaker</text>
  <text x="0" y="120" fill="#000000" font-size="5px" font-weight="bold" font-family="'Helvetica Neue', Helvetica, Arial-Unicode, Arial, Sans-serif" style="white-space: pre; visibility: hidden;">from the Noun Project</text>
  <g transform="matrix(0.336723, 0, 0, 0.331756, 1.147011, 1.408052)" style="">
    <path d="M35,29c-3.3,0-6,2.7-6,6s2.7,6,6,6s6-2.7,6-6S38.3,29,35,29z M35,39c-2.2,0-4-1.8-4-4s1.8-4,4-4s4,1.8,4,4S37.2,39,35,39z" style="fill: rgb(240, 173, 78);"/>
    <path d="M81.7,54.3l-36-36C45.5,18.1,45.3,18,45,18H19c-0.6,0-1,0.4-1,1v26c0,0.3,0.1,0.5,0.3,0.7l9.611,9.61   C26.16,57.397,25.1,60.08,25.1,63c0,6.6,5.4,12,12,12c2.993,0,5.731-1.077,7.783-2.918L54.4,81.6c0.365,0.367,0.975,0.425,1.399,0   l26-26C82.1,55.3,82.1,54.7,81.7,54.3z M29,64v-2h16v2H29z M55,79.6l-8.838-8.838C47.942,68.65,49.1,65.992,49.1,63   c0-6.6-5.4-12-12-12c-2.971,0-5.692,1.101-7.794,2.906L20,44.6V20h24.6l35,35L55,79.6z" style="fill: rgb(240, 173, 78);"/>
  </g>
</svg>