<?xml version="1.0" encoding="utf-8"?>
<svg version="1.1" x="0px" y="0px" viewBox="0 0 89.00214385986328 65.31652069091797" xmlns="http://www.w3.org/2000/svg">
  <g transform="matrix(1, 0, 0, 1, -5.694206, -969.724854)">
    <path style="text-indent:0;text-transform:none;direction:ltr;block-progression:tb;baseline-shift:baseline;color:#000000;enable-background:accumulate;" d="M 31.8125,970.36438 A 2.0001998,2.0001311 0 0 0 30,972.36431 l 0,7.99972 -10,0 a 2.0001998,2.0001311 0 0 0 -0.1875,0 A 2.0001998,2.0001311 0 0 0 18,982.36397 l 0,7.99972 -10,0 a 2.0001998,2.0001311 0 0 0 -0.1875,0 A 2.0001998,2.0001311 0 0 0 6,992.36362 l 0,39.99858 a 2.0001998,2.0001311 0 0 0 2,2 l 60,0 a 2.0001998,2.0001311 0 0 0 2,-2 l 0,-7.9997 10,0 a 2.0001998,2.0001311 0 0 0 2,-1.9999 l 0,-7.9997 10,0 a 2.0001998,2.0001311 0 0 0 2,-2 l 0,-39.99859 a 2.0001998,2.0001311 0 0 0 -2,-1.99993 l -60,0 a 2.0001998,2.0001311 0 0 0 -0.1875,0 z m 2.1875,3.99986 56,0 0,35.99876 -8,0 0,-27.99903 A 2.0001998,2.0001311 0 0 0 80.15625,980.39528 2.0001998,2.0001311 0 0 0 80,980.36403 l -46,0 0,-5.99979 z m -12,9.99966 9.65625,0 A 2.0001998,2.0001311 0 0 0 32,984.39515 l 46,-0.0312 0,27.999 a 2.0001998,2.0001311 0 0 0 0,0.2188 l 0,7.781 -8,0 0,-27.99908 A 2.0001998,2.0001311 0 0 0 68.15625,990.39494 2.0001998,2.0001311 0 0 0 68,990.36369 l -46,0 0,-5.99979 z m -12,9.99965 9.65625,0 A 2.0001998,2.0001311 0 0 0 20,994.3948 l 46,-0.0312 0,27.99905 a 2.0001998,2.0001311 0 0 0 0,0.2187 l 0,7.781 -56,0 0,-35.99875 z m 37.875,5.96855 a 2.0001995,2.0001308 0 0 0 -1.46875,0.8125 l -13.5,17.9994 -3.375,-4.0624 a 2.0001995,2.0001308 0 1 0 -3.0625,2.5624 l 5,5.9998 a 2.0001995,2.0001308 0 0 0 3.125,-0.094 l 15,-19.9994 a 2.0001995,2.0001308 0 0 0 -1.71875,-3.2186 z" fill="#000000" fill-opacity="1" stroke="none" marker="none" visibility="visible" display="inline" overflow="visible"/>
  </g>
  <text x="0" y="115" fill="#000000" font-size="5px" font-weight="bold" font-family="'Helvetica Neue', Helvetica, Arial-Unicode, Arial, Sans-serif" style="white-space: pre; visibility: hidden;">Created by arejoenah</text>
  <text x="0" y="120" fill="#000000" font-size="5px" font-weight="bold" font-family="'Helvetica Neue', Helvetica, Arial-Unicode, Arial, Sans-serif" style="white-space: pre; visibility: hidden;">from the Noun Project</text>
</svg>