<?xml version="1.0" encoding="utf-8"?>
<svg version="1.1" id="Layer_2" x="0px" y="0px" viewBox="0 0 25 25" enable-background="new 0 0 25 25" xmlns="http://www.w3.org/2000/svg">
  <path d="M 15.2 13.525 L 8.1 13.525 C 7.7 13.525 7.5 13.367 7.4 13.13 L 5.1 7.442 C 4.9 7.047 5.2 6.573 5.8 6.652 L 7 6.731 C 7.8 6.81 8.5 7.205 8.7 7.679 C 8.7 7.679 10.1 11.313 10.2 11.55 C 10.4 11.945 10.6 12.103 11.3 12.182 C 11.6 12.182 15.2 12.577 15.2 12.577 C 15.6 12.656 16 12.735 16 13.051 C 16 13.367 15.7 13.525 15.2 13.525 Z M 19.3 15.104 C 19.1 14.867 18.8 14.867 18.7 15.104 C 18.7 15.104 18.4 16.605 18.3 16.842 C 18.2 17.079 18.3 17.158 18.5 17.316 C 18.7 17.474 22.4 20.397 22.8 20.713 C 23.1 20.95 23.7 21.029 24 20.871 C 24.3 20.634 24.3 20.318 24.1 20.081 L 19.3 15.104 Z M 6.4 3.493 C 5.5 3.335 4.6 3.888 4.5 4.599 C 4.4 5.389 5 6.02 6 6.099 C 6.9 6.178 7.8 5.705 7.9 4.915 C 8 4.204 7.3 3.572 6.4 3.493 Z M 16.6 17.711 C 17 17.474 17 17 17 17 L 17.3 15.262 C 17.4 14.63 16.9 14.235 16.1 14.314 C 16.1 14.314 8.5 14.393 7.6 14.393 C 6.9 14.393 6.6 14.314 6.4 13.92 C 6.3 13.683 3 5.705 3 5.705 C 3 5.705 2.8 5.31 2.4 5.231 C 2.1 5.231 1.6 5.231 1.4 5.231 C 1 5.231 0.7 5.468 0.9 5.862 C 0.9 5.862 3.6 12.814 5.2 16.921 C 5.3 17.237 5.5 17.553 5.8 17.711 C 6.1 17.869 6.8 17.948 6.8 17.948 L 15.6 17.948 C 15.6 17.869 16.2 17.948 16.6 17.711 Z" style="fill: rgb(255, 255, 255);"/>
</svg>