<?xml version="1.0" encoding="utf-8"?>
<svg viewBox="0 0 209 673" xmlns="http://www.w3.org/2000/svg">
  <defs>
    <style>.cls-1{fill:#e3e3e3;}.cls-2{fill:#f5f5f5;}.cls-3{fill:#b1b1b1;}</style>
  </defs>
  <title>Asset 3</title>
  <g id="Layer_2" data-name="Layer 2" transform="matrix(0, 1, -1, 0, 208.495026, 0.271469)">
    <g id="Layer_1-2" data-name="Layer 1">
      <path class="cls-1" style="fill: rgba(0, 0, 0, 0.22);"/>
      <path class="cls-1" d="M 651.26 0 L 644.58 0 C 656 0 665.06 11.82 665.06 24.89 L 665.06 185.63 C 665.06 197.2 657.9599999999999 206.06 648.39 208.07 L 651.26 208.07 C 662.79 208.07 672.2 198.7 672.2 185.63 L 672.2 24.89 C 672.19 11.82 662.79 0 651.26 0" style="fill: rgba(0, 0, 0, 0.22);"/>
      <rect class="cls-1" x="44.62" width="607.58" height="1" style="fill: rgba(0, 0, 0, 0.22);"/>
      <rect class="cls-1" x="47.96" y="206.99" width="604.34" height="1" style="fill: rgba(0, 0, 0, 0.22);"/>
      <path class="cls-2" d="M 30.54 184.7 C 25 165.3 20.47 133.4 20.47 106.89 C 20.47 79.03 25.229999999999997 41.78 32.769999999999996 22.450000000000003 C 39.15 6.09 44.83 2.22 55.1 1 C 53.666095655344165 0.8740060995466674 52.223904344655836 0.8740060995466669 50.79 1 C 41.79 2.78 33.47 7.87 27.79 22.5 C 20.22 41.79 16.47 79 16.47 106.89 C 16.47 133.4 18.64 165.74 25.54 184.69 C 31.22 200.29 39.39 205.46 48.480000000000004 207.16 C 50.80758353126921 207.3916579408 53.1524164687308 207.3916579408 55.480000000000004 207.16 C 56.91 207.06 36.53 205.67 30.54 184.7" style="fill: rgba(0, 0, 0, 0.22);"/>
      <path class="cls-1" d="M 25.54 184.7 C 18.64 165.7 16.47 133.41 16.47 106.89999999999999 C 16.47 79.03999999999999 20.229999999999997 41.78999999999999 27.77 22.459999999999994 C 33.47 7.8399999999999945 41.769999999999996 2.739999999999995 50.769999999999996 0.9599999999999937 C 51.85666666666666 0.7466666666666645 52.93333333333333 0.5766666666666667 54 0.45 C 52.5415137930057 0.15607174059980883 51.05779943347343 0.005355690691591539 49.57 0 C 35.19 0 20.14 -0.21000000000000008 11.3 22.45 C 3.76 41.79 0 79 0 106.89 C 0 133.4 2.17 165.74 9.07 184.69 C 17.93 209 32.82 208 47.79 208 C 49.16988999219966 207.99895820567923 50.54753686702066 207.888613099288 51.91 207.67 C 50.75 207.54999999999998 49.599999999999994 207.39 48.47 207.17999999999998 C 39.39 205.46 31.22 200.3 25.54 184.7" style="fill: rgba(0, 0, 0, 0.22);"/>
      <path class="cls-3" d="M 10.63 23.09 C 8.763515772305333 28.697746340551195 7.303075902334941 34.43256284484599 6.26 40.25 C 10.79 38.71 15.44 33.769999999999996 18.66 27.25 C 22.34 19.8 22.89 12.48 20.39 8.059999999999999 C 16.7 11.35 13.32 15.86 10.63 23.09" style="fill: rgba(0, 0, 0, 0.22);"/>
      <path class="cls-3" d="M 8.54 183.7 C 11.629999999999999 192.63 15.54 198.33999999999997 19.9 201.7 C 22.9 197.41 22.529999999999998 189.06 18.65 181.20999999999998 C 15.079999999999998 173.98 9.569999999999999 168.67999999999998 4.649999999999999 167.73999999999998 C 5.56829766980602 173.1451553757869 6.8682157077537695 178.4784951855841 8.54 183.7" style="fill: rgba(0, 0, 0, 0.22);"/>
      <path class="cls-3" d="M 56.19 161.65 C 56.19229786348378 160.888112389662 56.303420271525084 160.13045960338465 56.519999999999996 159.4 C 61.23789878493861 160.87264783588725 64.8866027384573 164.63808018950235 66.21 169.4 C 61.14844242129175 170.7068900924454 56.21389852723774 166.88755312147052 56.209999999999994 161.66 L 56.19 161.65 M 56.19 184.92000000000002 C 56.19389852723774 179.6924468785295 61.12844242129175 175.8731099075546 66.19 177.18 C 64.86494953788659 181.9409722580819 61.216899661589814 185.70572962050167 56.5 187.18 C 56.28924105373256 186.4453424611606 56.184846683300925 185.6842738227444 56.19 184.92 L 56.19 184.92000000000002 M 50.37 173.28000000000003 C 50.37 171.3170090847553 52.49499999999999 170.09013976272735 54.19499999999999 171.07163522034972 C 55.894999999999996 172.0531306779721 55.894999999999996 174.50686932202797 54.19499999999999 175.48836477965034 C 53.807351014899986 175.7121740255489 53.36761849179714 175.83000000000004 52.919999999999995 175.83000000000004 C 51.515577557228326 175.83000000000004 50.37550753951447 174.69441164363204 50.37 173.29 L 50.37 173.28000000000003 M 37.64 173.28000000000003 C 37.64113791376473 166.61419006525335 42.174768451438936 160.8028999983073 48.64 159.18000000000004 C 45.6310887051171 168.3460514908659 45.6310887051171 178.23394850913417 48.64 187.40000000000003 C 42.17512344782356 185.77231631952847 37.64540073720951 179.95663047163526 37.65 173.29 L 37.64 173.28000000000003 M 36.19 173.28000000000003 C 36.19 185.59680574271204 49.52333333333333 193.29480933190706 60.19 187.13640646055106 C 70.85666666666665 180.97800358919505 70.85666666666667 165.581996410805 60.190000000000005 159.423593539449 C 57.75769264250978 158.0193002318501 54.99858661519778 157.28000000000003 52.19 157.28000000000003 C 43.34953850673665 157.28000000000003 36.18447471156671 164.44954023338946 36.19 173.29 L 36.19 173.28000000000003" style="fill: rgba(0, 0, 0, 0.22);"/>
    </g>
  </g>
</svg>