<svg xmlns="http://www.w3.org/2000/svg" viewBox="0 0 672.19 208.07"><defs><style>.cls-1{fill:#e3e3e3;}.cls-2{fill:#f5f5f5;}.cls-3{fill:#b1b1b1;}</style></defs><title>Asset 3</title><g id="Layer_2" data-name="Layer 2"><g id="Layer_1-2" data-name="Layer 1"><path class="cls-1" d="M34.19.17"/><path class="cls-1" d="M651.26,0h-6.68C656,0,665.06,11.82,665.06,24.89V185.63c0,11.57-7.1,20.43-16.67,22.44h2.87c11.53,0,20.94-9.37,20.94-22.44V24.89C672.19,11.82,662.79,0,651.26,0Z"/><rect class="cls-1" x="44.62" width="607.58" height="1"/><rect class="cls-1" x="47.96" y="206.99" width="604.34" height="1"/><path class="cls-2" d="M30.54,184.7C25,165.3,20.47,133.4,20.47,106.89c0-27.86,4.76-65.11,12.3-84.44C39.15,6.09,44.83,2.22,55.1,1A24.62,24.62,0,0,0,50.79,1c-9,1.78-17.32,6.87-23,21.5C20.22,41.79,16.47,79,16.47,106.89c0,26.51,2.17,58.85,9.07,77.8,5.68,15.6,13.85,20.77,22.94,22.47a35.34,35.34,0,0,0,7,0C56.91,207.06,36.53,205.67,30.54,184.7Z"/><path class="cls-1" d="M25.54,184.7c-6.9-19-9.07-51.29-9.07-77.8,0-27.86,3.76-65.11,11.3-84.44,5.7-14.62,14-19.72,23-21.5Q52.4.64,54,.45A22.84,22.84,0,0,0,49.57,0C35.19,0,20.14-.21,11.3,22.45,3.76,41.79,0,79,0,106.89c0,26.51,2.17,58.85,9.07,77.8C17.93,209,32.82,208,47.79,208a26.13,26.13,0,0,0,4.12-.33c-1.16-.12-2.31-.28-3.44-.49C39.39,205.46,31.22,200.3,25.54,184.7Z"/><path class="cls-3" d="M10.63,23.09A123.17,123.17,0,0,0,6.26,40.25c4.53-1.54,9.18-6.48,12.4-13,3.68-7.45,4.23-14.77,1.73-19.19C16.7,11.35,13.32,15.86,10.63,23.09Z"/><path class="cls-3" d="M8.54,183.7c3.09,8.93,7,14.64,11.36,18,3-4.29,2.63-12.64-1.25-20.49-3.57-7.23-9.08-12.53-14-13.47A116.13,116.13,0,0,0,8.54,183.7Z"/><path class="cls-3" d="M56.19,161.65a8,8,0,0,1,.33-2.25,14.56,14.56,0,0,1,9.69,10,8,8,0,0,1-10-7.74Zm0,23.27a8,8,0,0,1,10-7.74,14.57,14.57,0,0,1-9.69,10A8,8,0,0,1,56.19,184.92Zm-5.82-11.64a2.55,2.55,0,1,1,2.55,2.55A2.55,2.55,0,0,1,50.37,173.29Zm-12.73,0a14.54,14.54,0,0,1,11-14.1,45.24,45.24,0,0,0,0,28.22A14.54,14.54,0,0,1,37.65,173.29Zm-1.45,0a16,16,0,1,0,16-16A16,16,0,0,0,36.19,173.29Z"/></g></g></svg>