<?xml version="1.0" encoding="utf-8"?>
<svg version="1.1" x="0px" y="0px" viewBox="0 0 53 57.0881233215332" style="enable-background:new 0 0 16 16;" xmlns="http://www.w3.org/2000/svg">
  <path d="M 26.668 52.347 C 12.415 52.347 0.753 40.692 0.753 26.445 C 0.753 12.2 12.415 0.545 26.668 0.545 C 28.397 0.545 30.125 1.84 30.125 3.998 C 30.125 6.157 28.397 7.02 26.668 7.02 C 15.871 7.02 7.233 15.653 7.233 26.445 C 7.233 37.238 15.871 45.871 26.668 45.871 C 37.467 45.871 46.106 37.238 46.106 26.445 C 46.106 24.719 47.402 22.992 49.561 22.992 C 51.721 22.992 52.585 24.719 52.585 26.445 C 52.585 40.692 40.922 52.347 26.668 52.347 Z" style="fill: rgb(0, 132, 24); visibility: hidden;"/>
  <g transform="matrix(0.651911, 0, 0, 0.636831, -5.965192, -4.107733)" style="visibility: hidden;">
    <polygon points="50.125 53.88 66.706 35.109 56.837 35.109 56.837 7.084 43.413 7.084 43.413 35.109 33.544 35.109" style="fill: rgb(33, 155, 65);"/>
    <path d="M48.779541,72.12146C34.998291,71.4188232,24.0022583,59.9858398,24.0022583,46.03302   c0-9.3614502,4.9526978-17.5845947,12.3726807-22.1976318V8.9561768   C21.328064,14.5544434,10.5787354,29.0603638,10.5787354,46.03302c0,21.3547363,17.0164795,38.7988281,38.2008057,39.512085   v8.9411621l18.0927124-15.9821777L48.779541,62.5218506V72.12146z" style="fill: rgb(33, 155, 65);"/>
    <path d="M63.8930664,8.9633179v14.883606c7.4099121,4.6151733,12.3546753,12.8322754,12.3546753,22.1860962h13.4235229   C89.6712646,29.0671997,78.930481,14.5664673,63.8930664,8.9633179z" style="fill: rgb(33, 155, 65);"/>
  </g>
  <g transform="matrix(1.165862, 0, 0, 1.246765, 0.376507, 0.336697)">
    <path d="M11.249,22.5c0-0.86,0.105-1.695,0.289-2.5H0v4.999h11.537C11.354,24.194,11.249,23.36,11.249,22.5z"/>
    <path d="M32.016,16.518l8.161-8.161L36.64,4.822l-8.161,8.16C29.907,13.882,31.116,15.09,32.016,16.518z"/>
    <path d="M22.5,11.25c0.86,0,1.694,0.105,2.499,0.288V0h-5.001v11.539C20.804,11.355,21.639,11.25,22.5,11.25z"/>
    <path d="M16.518,12.984L8.354,4.822L4.82,8.359l8.162,8.161C13.882,15.093,15.09,13.884,16.518,12.984z"/>
    <path d="M33.462,20c0.183,0.805,0.288,1.64,0.288,2.5s-0.105,1.694-0.288,2.499h11.537V20H33.462z"/>
    <path d="M28.479,32.018l8.16,8.16l3.537-3.536l-8.161-8.16C31.116,29.909,29.907,31.118,28.479,32.018z"/>
    <path d="M22.5,33.75c-0.861,0-1.696-0.105-2.502-0.289V45h5.001V33.462C24.194,33.645,23.36,33.75,22.5,33.75z"/>
  </g>
</svg>