<svg xmlns="http://www.w3.org/2000/svg" xmlns:xlink="http://www.w3.org/1999/xlink" version="1.1" x="0px" y="0px" viewBox="0 0 44.999 56.25" enable-background="new 0 0 44.999 45" xml:space="preserve"><g><path d="M11.249,22.5c0-0.86,0.105-1.695,0.289-2.5H0v4.999h11.537C11.354,24.194,11.249,23.36,11.249,22.5z"/><path d="M32.016,16.518l8.161-8.161L36.64,4.822l-8.161,8.16C29.907,13.882,31.116,15.09,32.016,16.518z"/><path d="M22.5,11.25c0.86,0,1.694,0.105,2.499,0.288V0h-5.001v11.539C20.804,11.355,21.639,11.25,22.5,11.25z"/><path d="M16.518,12.984L8.354,4.822L4.82,8.359l8.162,8.161C13.882,15.093,15.09,13.884,16.518,12.984z"/><path d="M33.462,20c0.183,0.805,0.288,1.64,0.288,2.5s-0.105,1.694-0.288,2.499h11.537V20H33.462z"/><path d="M28.479,32.018l8.16,8.16l3.537-3.536l-8.161-8.16C31.116,29.909,29.907,31.118,28.479,32.018z"/><path d="M22.5,33.75c-0.861,0-1.696-0.105-2.502-0.289V45h5.001V33.462C24.194,33.645,23.36,33.75,22.5,33.75z"/></g><text x="0" y="60" fill="#000000" font-size="5px" font-weight="bold" font-family="'Helvetica Neue', Helvetica, Arial-Unicode, Arial, Sans-serif">Created by Star and Anchor Design</text><text x="0" y="65" fill="#000000" font-size="5px" font-weight="bold" font-family="'Helvetica Neue', Helvetica, Arial-Unicode, Arial, Sans-serif">from the Noun Project</text></svg>