<?xml version="1.0" encoding="utf-8"?>
<svg version="1.0" x="0px" y="0px" viewBox="0 0 159.28648376464844 183.75" enable-background="new 0 0 100 100" xmlns="http://www.w3.org/2000/svg">
  <path d="M 50.348 131.988 C 48.77 131.61 47.41 130.639 46.572 129.291 C 45.733 127.942 45.481 126.327 45.874 124.798 L 57.942 77.771 C 58.178 76.854 59.022 73.564 59.251 72.669 L 61.633 63.384 L 57.543 59.427 L 57.543 75.14 L 51.408 75.14 L 51.408 59.428 L 44.818 65.801 L 40.482 61.605 L 52.305 50.166 C 52.881 49.609 53.662 49.297 54.474 49.297 C 55.286 49.297 56.066 49.609 56.642 50.167 L 63.357 56.661 L 71.008 26.84 L 65.411 26.84 C 63.784 26.84 62.222 27.465 61.072 28.578 C 59.921 29.69 59.274 31.2 59.276 32.774 C 59.276 34.108 58.739 35.36 57.764 36.302 C 56.789 37.246 55.494 37.765 54.116 37.765 C 51.27 37.765 48.955 35.525 48.955 32.771 C 48.955 29.495 46.208 26.838 42.819 26.838 L 24.061 26.838 C 20.673 26.838 17.926 29.495 17.926 32.771 L 17.926 81.229 C 17.926 82.15 17.926 85.539 17.926 86.485 L 17.926 134.94 C 17.926 136.514 18.572 138.023 19.722 139.137 C 20.873 140.25 22.433 140.875 24.06 140.875 L 65.415 140.875 L 66.522 140.875 L 84.175 140.875 C 84.833 140.875 85.454 140.748 86.049 140.564 L 50.348 131.988 Z M 31.793 90.506 L 22.919 90.506 L 22.919 85.251 L 31.792 85.251 L 31.792 90.506 Z M 40.665 85.251 L 49.537 85.251 L 49.537 90.506 L 40.665 90.506 L 40.665 85.251 Z" style="fill-opacity: 0.03;"/>
  <path d="M 142.423 32.752 L 124.212 28.379 C 122.633 28 120.962 28.243 119.568 29.055 C 118.174 29.866 117.172 31.18 116.78 32.71 C 116.447 34.005 115.616 35.094 114.433 35.782 C 113.253 36.471 111.867 36.672 110.531 36.351 C 107.769 35.687 106.08 32.974 106.766 30.302 C 107.582 27.12 105.578 23.903 102.288 23.112 L 84.079 18.74 C 80.791 17.951 77.463 19.889 76.647 23.069 L 64.579 70.101 C 64.351 70.994 63.507 74.284 63.271 75.201 L 51.203 122.228 C 50.811 123.755 51.062 125.371 51.9 126.721 C 52.739 128.069 54.098 129.039 55.678 129.418 L 96.89 139.314 L 95.816 139.057 L 114.023 143.427 C 117.313 144.217 120.641 142.279 121.457 139.097 L 133.525 92.071 C 133.76 91.153 134.597 87.885 134.833 86.969 L 146.9 39.944 C 147.713 36.761 145.711 33.542 142.423 32.752 Z M 75.727 82.335 L 67.117 80.267 L 68.425 75.166 L 77.035 77.234 L 75.727 82.335 Z M 92.95 86.47 L 84.339 84.403 L 85.647 79.303 L 94.258 81.37 L 92.95 86.47 Z M 110.453 90.674 L 101.842 88.605 L 103.15 83.506 L 111.763 85.574 L 110.453 90.674 Z M 112.919 65.811 L 108.113 58.09 L 104.2 73.341 L 98.245 71.912 L 102.159 56.661 L 94.177 61.31 L 91.013 56.227 L 105.337 47.879 C 106.035 47.472 106.868 47.352 107.659 47.542 C 108.448 47.731 109.127 48.216 109.547 48.892 L 118.177 62.749 L 112.919 65.811 Z M 127.753 94.827 L 119.141 92.76 L 120.449 87.659 L 129.061 89.726 L 127.753 94.827 Z" style="fill-opacity: 0.03;"/>
  <text x="111.297" y="195.751" transform="matrix(1.385842, 0, 0, 1.340622, -142.672028, -94.802444)" style="fill-opacity: 0.03; font-family: &quot;Helvetica Neue&quot;, Helvetica, Arial-Unicode, Arial, sans-serif; font-size: 5px; font-weight: bold; visibility: hidden; white-space: pre;">Created by Kerry Webster</text>
  <text x="123.014" y="255.089" transform="matrix(1.385842, 0, 0, 1.340618, -158.910156, -167.647751)" style="fill-opacity: 0.03; font-family: &quot;Helvetica Neue&quot;, Helvetica, Arial-Unicode, Arial, sans-serif; font-size: 5px; font-weight: bold; visibility: hidden; white-space: pre;">from the Noun Project</text>
</svg>