<?xml version="1.0" encoding="utf-8"?>
<svg version="1.0" x="0px" y="0px" viewBox="0 0 230 245" enable-background="new 0 0 100 100" xmlns="http://www.w3.org/2000/svg">
  <path d="M 123.348 177.988 C 121.77 177.61 120.41 176.639 119.572 175.291 C 118.733 173.942 118.481 172.327 118.874 170.798 L 130.942 123.771 C 131.178 122.854 132.022 119.564 132.251 118.669 L 134.633 109.384 L 130.543 105.427 L 130.543 121.14 L 124.408 121.14 L 124.408 105.428 L 117.818 111.801 L 113.482 107.605 L 125.305 96.166 C 125.881 95.609 126.662 95.297 127.474 95.297 C 128.286 95.297 129.066 95.609 129.642 96.167 L 136.357 102.661 L 144.008 72.84 L 138.411 72.84 C 136.784 72.84 135.222 73.465 134.072 74.578 C 132.921 75.69 132.274 77.2 132.276 78.774 C 132.276 80.108 131.739 81.36 130.764 82.302 C 129.789 83.246 128.494 83.765 127.116 83.765 C 124.27 83.765 121.955 81.525 121.955 78.771 C 121.955 75.495 119.208 72.838 115.819 72.838 L 97.061 72.838 C 93.673 72.838 90.926 75.495 90.926 78.771 L 90.926 127.229 C 90.926 128.15 90.926 131.539 90.926 132.485 L 90.926 180.94 C 90.926 182.514 91.572 184.023 92.722 185.137 C 93.873 186.25 95.433 186.875 97.06 186.875 L 138.415 186.875 L 139.522 186.875 L 157.175 186.875 C 157.833 186.875 158.454 186.748 159.049 186.564 L 123.348 177.988 Z M 104.793 136.506 L 95.919 136.506 L 95.919 131.251 L 104.792 131.251 L 104.792 136.506 Z M 113.665 131.251 L 122.537 131.251 L 122.537 136.506 L 113.665 136.506 L 113.665 131.251 Z" style="fill-opacity: 0.05;"/>
  <path d="M 215.423 78.752 L 197.212 74.379 C 195.633 74 193.962 74.243 192.568 75.055 C 191.174 75.866 190.172 77.18 189.78 78.71 C 189.447 80.005 188.616 81.094 187.433 81.782 C 186.253 82.471 184.867 82.672 183.531 82.351 C 180.769 81.687 179.08 78.974 179.766 76.302 C 180.582 73.12 178.578 69.903 175.288 69.112 L 157.079 64.74 C 153.791 63.951 150.463 65.889 149.647 69.069 L 137.579 116.101 C 137.351 116.994 136.507 120.284 136.271 121.201 L 124.203 168.228 C 123.811 169.755 124.062 171.371 124.9 172.721 C 125.739 174.069 127.098 175.039 128.678 175.418 L 169.89 185.314 L 168.816 185.057 L 187.023 189.427 C 190.313 190.217 193.641 188.279 194.457 185.097 L 206.525 138.071 C 206.76 137.153 207.597 133.885 207.833 132.969 L 219.9 85.944 C 220.713 82.761 218.711 79.542 215.423 78.752 Z M 148.727 128.335 L 140.117 126.267 L 141.425 121.166 L 150.035 123.234 L 148.727 128.335 Z M 165.95 132.47 L 157.339 130.403 L 158.647 125.303 L 167.258 127.37 L 165.95 132.47 Z M 183.453 136.674 L 174.842 134.605 L 176.15 129.506 L 184.763 131.574 L 183.453 136.674 Z M 185.919 111.811 L 181.113 104.09 L 177.2 119.341 L 171.245 117.912 L 175.159 102.661 L 167.177 107.31 L 164.013 102.227 L 178.337 93.879 C 179.035 93.472 179.868 93.352 180.659 93.542 C 181.448 93.731 182.127 94.216 182.547 94.892 L 191.177 108.749 L 185.919 111.811 Z M 200.753 140.827 L 192.141 138.76 L 193.449 133.659 L 202.061 135.726 L 200.753 140.827 Z" style="fill-opacity: 0.05;"/>
  <text x="111.297" y="195.751" transform="matrix(1.385842, 0, 0, 1.340622, -69.672028, -48.802444)" style="fill-opacity: 0.05; font-family: &quot;Helvetica Neue&quot;, Helvetica, Arial-Unicode, Arial, sans-serif; font-size: 5px; font-weight: bold; visibility: hidden; white-space: pre;">Created by Kerry Webster</text>
  <text x="123.014" y="255.089" transform="matrix(1.385842, 0, 0, 1.340618, -85.910149, -121.647751)" style="fill-opacity: 0.05; font-family: &quot;Helvetica Neue&quot;, Helvetica, Arial-Unicode, Arial, sans-serif; font-size: 5px; font-weight: bold; visibility: hidden; white-space: pre;">from the Noun Project</text>
</svg>