<?xml version="1.0" encoding="utf-8"?>
<svg version="1.1" x="0px" y="0px" style="enable-background:new 0 0 100 100;" viewBox="0 0 36 36" xmlns="http://www.w3.org/2000/svg">
  <g transform="matrix(0.235003, 0, 0, 0.203123, 6.249849, 7.833692)" style="">
    <path d="M20.2,22.2l4.1,64.4c0.2,3.5,3.3,6.2,6.9,6.2h37.6c3.7,0,6.7-2.7,6.9-6.2l4.1-64.4H20.2z M62.1,63.2c1.5,1.5,1.5,3.9,0,5.4   c-0.7,0.8-1.7,1.1-2.7,1.1c-1,0-1.9-0.4-2.7-1.1L50,61.8l-6.8,6.7c-0.7,0.8-1.7,1.1-2.7,1.1c-1,0-2-0.4-2.7-1.1   c-1.5-1.5-1.5-3.9,0-5.4l6.7-6.7l-6.7-6.8c-1.5-1.5-1.5-3.9,0-5.4s3.9-1.5,5.4,0L50,51l6.7-6.7c1.5-1.5,3.9-1.5,5.4,0   s1.5,3.9,0,5.4l-6.7,6.8L62.1,63.2z" style="fill-opacity: 0.7; fill: rgb(255, 255, 255);"/>
    <path d="M81.9,12.2H64.3l-0.6-3.4C63.6,8,62.9,7.3,62,7.3H38.3c-0.9,0-1.6,0.7-1.8,1.6L36,12.2H18.1c-1.2,0-2.2,1-2.2,2.2V17   c0,1.2,1,2.2,2.2,2.2h63.8c1.2,0,2.2-1,2.2-2.2v-2.6C84.1,13.2,83.1,12.2,81.9,12.2z" style="fill-opacity: 0.7; fill: rgb(255, 255, 255);"/>
  </g>
  <g stroke="none" stroke-width="1" fill="none" fill-rule="evenodd" transform="matrix(0.369629, 0, 0, 0.381008, 7.53878, 7.28499)" style="visibility: hidden;">
    <g transform="translate(-98.000000, -503.000000)">
      <g transform="translate(96.000000, 501.000000)">
        <g transform="translate(30.577329, 30.569497) rotate(-315.000000) translate(-30.577329, -30.569497) translate(13.077329, 5.069497)">
          <path d="M8.30668865,0.378864595 C3.89333881,0.378864595 0.315611875,3.95467558 0.315611875,8.38449753 L0.315611875,42.3732317 C0.315611875,46.7946206 3.90492134,50.3788646 8.30668865,50.3788646 L24.9908384,50.3788646 C29.4041882,50.3788646 32.9819151,46.8030536 32.9819151,42.3732317 L32.9819151,8.38449753 C32.9819151,3.96310855 29.3926057,0.378864595 24.9908384,0.378864595 L8.30668865,0.378864595 Z" stroke-width="2.5" style="stroke: rgb(255, 255, 255); stroke-opacity: 0.7;"/>
          <path d="M0.56672679,22.1909249 L33.6632056,22.1909249" stroke-width="6" style="stroke: rgb(255, 255, 255); stroke-opacity: 0.7;"/>
          <polygon points="0.767269683 23.5934207 0.484522928 4.60483602 5.73687678 0.628321036 28.3917518 0.628321036 33.0912547 6.6731214 33.0912547 23.436363" style="stroke: rgb(255, 255, 255); stroke-opacity: 0.7; fill: rgb(255, 255, 255); fill-opacity: 0.7;"/>
        </g>
        <path d="M23.3893329,55.7915096 L56.176283,55.7915096" stroke-width="2.5" stroke-linecap="round" style="fill-rule: nonzero; stroke: rgb(255, 255, 255); stroke-opacity: 0.7;"/>
      </g>
    </g>
  </g>
  <path d="M 15.763 16.36 L 15.763 25.5 L 12.434 25.5 L 12.434 16.36 L 9.101 16.36 L 14.099 9.413 L 19.094 16.36 L 15.763 16.36 Z M 16.906 19.642 L 21.902 26.587 L 26.899 19.642 L 23.568 19.642 L 23.568 10.483 L 20.237 10.483 L 20.237 19.623 L 16.906 19.623 Z" style="fill-opacity: 0.7; visibility: hidden;"/>
</svg>