<svg xmlns="http://www.w3.org/2000/svg" xmlns:xlink="http://www.w3.org/1999/xlink" version="1.1" x="0px" y="0px" viewBox="0 0 100 125" style="enable-background:new 0 0 100 100;" xml:space="preserve"><g><path d="M20.2,22.2l4.1,64.4c0.2,3.5,3.3,6.2,6.9,6.2h37.6c3.7,0,6.7-2.7,6.9-6.2l4.1-64.4H20.2z M62.1,63.2c1.5,1.5,1.5,3.9,0,5.4   c-0.7,0.8-1.7,1.1-2.7,1.1c-1,0-1.9-0.4-2.7-1.1L50,61.8l-6.8,6.7c-0.7,0.8-1.7,1.1-2.7,1.1c-1,0-2-0.4-2.7-1.1   c-1.5-1.5-1.5-3.9,0-5.4l6.7-6.7l-6.7-6.8c-1.5-1.5-1.5-3.9,0-5.4s3.9-1.5,5.4,0L50,51l6.7-6.7c1.5-1.5,3.9-1.5,5.4,0   s1.5,3.9,0,5.4l-6.7,6.8L62.1,63.2z"/><path d="M81.9,12.2H64.3l-0.6-3.4C63.6,8,62.9,7.3,62,7.3H38.3c-0.9,0-1.6,0.7-1.8,1.6L36,12.2H18.1c-1.2,0-2.2,1-2.2,2.2V17   c0,1.2,1,2.2,2.2,2.2h63.8c1.2,0,2.2-1,2.2-2.2v-2.6C84.1,13.2,83.1,12.2,81.9,12.2z"/></g><text x="0" y="115" fill="#000000" font-size="5px" font-weight="bold" font-family="'Helvetica Neue', Helvetica, Arial-Unicode, Arial, Sans-serif">Created by Adrien Coquet</text><text x="0" y="120" fill="#000000" font-size="5px" font-weight="bold" font-family="'Helvetica Neue', Helvetica, Arial-Unicode, Arial, Sans-serif">from the Noun Project</text></svg>